<svg xmlns="http://www.w3.org/2000/svg" xmlns:xlink="http://www.w3.org/1999/xlink" width="1000" zoomAndPan="magnify" viewBox="0 0 750 749.999995" height="1000" preserveAspectRatio="xMidYMid meet" version="1.0"><defs><clipPath id="84ff522edd"><path d="M 243 23.4375 L 527 23.4375 L 527 63 L 243 63 Z M 243 23.4375 " clip-rule="nonzero"/></clipPath><clipPath id="80282ae8a1"><path d="M 259 491 L 546 491 L 546 726.9375 L 259 726.9375 Z M 259 491 " clip-rule="nonzero"/></clipPath></defs><g clip-path="url(#84ff522edd)"><path fill="#05059e" d="M 247.015625 62.714844 C 245.609375 62.714844 244.269531 61.917969 243.664062 60.542969 C 242.800781 58.691406 243.632812 56.488281 245.480469 55.625 C 257.832031 49.941406 270.664062 44.929688 283.589844 40.714844 C 285.539062 40.074219 287.613281 41.128906 288.25 43.078125 C 288.890625 45.023438 287.835938 47.101562 285.886719 47.738281 C 273.21875 51.859375 260.675781 56.777344 248.578125 62.332031 C 248.035156 62.589844 247.523438 62.714844 247.015625 62.714844 Z M 522.996094 55.179688 C 522.550781 55.179688 522.070312 55.082031 521.65625 54.925781 C 509.273438 50.039062 496.441406 45.824219 483.582031 42.40625 C 481.601562 41.894531 480.421875 39.851562 480.964844 37.871094 C 481.472656 35.890625 483.515625 34.710938 485.496094 35.253906 C 498.644531 38.734375 511.730469 43.042969 524.371094 48.027344 C 526.253906 48.761719 527.210938 50.933594 526.445312 52.816406 C 525.871094 54.285156 524.464844 55.179688 522.996094 55.179688 Z M 323.902344 37.679688 C 322.179688 37.679688 320.644531 36.464844 320.292969 34.710938 C 319.878906 32.699219 321.1875 30.75 323.199219 30.367188 C 336.507812 27.683594 350.136719 25.738281 363.703125 24.617188 C 365.746094 24.460938 367.53125 25.960938 367.691406 28.003906 C 367.851562 30.046875 366.351562 31.835938 364.308594 31.996094 C 351 33.113281 337.65625 34.996094 324.636719 37.648438 C 324.378906 37.648438 324.125 37.679688 323.902344 37.679688 Z M 444.832031 34.390625 C 444.640625 34.390625 444.484375 34.390625 444.292969 34.359375 C 431.140625 32.441406 417.703125 31.292969 404.363281 30.878906 C 402.320312 30.8125 400.726562 29.121094 400.789062 27.078125 C 400.851562 25.035156 402.574219 23.4375 404.585938 23.5 C 418.214844 23.917969 431.9375 25.097656 445.375 27.046875 C 447.386719 27.332031 448.792969 29.21875 448.503906 31.230469 C 448.21875 33.082031 446.652344 34.390625 444.832031 34.390625 Z M 444.832031 34.390625 " fill-opacity="1" fill-rule="nonzero"/></g><path fill="#05059e" d="M 225.886719 693.214844 C 225.277344 693.214844 224.671875 693.054688 224.128906 692.769531 C 212.191406 686.285156 200.480469 679.003906 189.339844 671.179688 C 187.679688 670 187.265625 667.699219 188.445312 666.039062 C 189.628906 664.378906 191.925781 663.964844 193.585938 665.144531 C 204.5 672.808594 215.960938 679.929688 227.640625 686.285156 C 229.429688 687.277344 230.097656 689.511719 229.109375 691.300781 C 228.46875 692.511719 227.195312 693.214844 225.886719 693.214844 Z M 159.722656 646.6875 C 158.859375 646.6875 157.964844 646.367188 157.265625 645.761719 C 147.113281 636.726562 137.347656 626.984375 128.285156 616.828125 C 126.910156 615.296875 127.039062 612.964844 128.570312 611.59375 C 130.101562 610.21875 132.433594 610.347656 133.804688 611.878906 C 142.679688 621.8125 152.222656 631.359375 162.179688 640.207031 C 163.710938 641.578125 163.839844 643.910156 162.5 645.441406 C 161.765625 646.273438 160.742188 646.6875 159.722656 646.6875 Z M 105.847656 586.367188 C 104.699219 586.367188 103.546875 585.824219 102.8125 584.800781 C 94.960938 573.6875 87.6875 562 81.175781 550.054688 C 80.183594 548.269531 80.855469 546.03125 82.644531 545.042969 C 84.429688 544.054688 86.695312 544.722656 87.652344 546.511719 C 94.039062 558.199219 101.15625 569.632812 108.847656 580.519531 C 110.027344 582.183594 109.613281 584.511719 107.953125 585.664062 C 107.316406 586.140625 106.582031 586.367188 105.847656 586.367188 Z M 67.097656 515.375 C 65.632812 515.375 64.257812 514.515625 63.683594 513.078125 C 58.578125 500.464844 54.171875 487.433594 50.566406 474.308594 C 50.023438 472.328125 51.171875 470.316406 53.152344 469.773438 C 55.128906 469.230469 57.140625 470.382812 57.683594 472.363281 C 61.226562 485.199219 65.535156 497.972656 70.515625 510.332031 C 71.28125 512.214844 70.355469 514.386719 68.472656 515.152344 C 68.023438 515.28125 67.546875 515.375 67.097656 515.375 Z M 45.621094 437.394531 C 43.832031 437.394531 42.269531 436.085938 41.980469 434.265625 C 39.90625 420.851562 38.597656 407.152344 38.085938 393.515625 C 38.023438 391.472656 39.585938 389.75 41.628906 389.683594 C 43.671875 389.621094 45.394531 391.1875 45.460938 393.230469 C 45.96875 406.578125 47.246094 420.023438 49.289062 433.148438 C 49.609375 435.160156 48.203125 437.042969 46.195312 437.363281 C 46.003906 437.394531 45.8125 437.394531 45.621094 437.394531 Z M 42.492188 356.539062 C 42.394531 356.539062 42.300781 356.539062 42.203125 356.539062 C 40.160156 356.378906 38.628906 354.621094 38.789062 352.578125 C 39.8125 338.976562 41.628906 325.308594 44.183594 311.992188 C 44.566406 309.980469 46.511719 308.667969 48.523438 309.054688 C 50.535156 309.4375 51.84375 311.382812 51.460938 313.394531 C 48.9375 326.457031 47.183594 339.835938 46.195312 353.152344 C 46.035156 355.070312 44.40625 356.539062 42.492188 356.539062 Z M 42.492188 356.539062 " fill-opacity="1" fill-rule="nonzero"/><path fill="#05059e" d="M 577 684.464844 C 575.757812 684.464844 574.542969 683.828125 573.839844 682.675781 C 572.789062 680.921875 573.332031 678.652344 575.085938 677.601562 C 586.449219 670.671875 597.523438 663.007812 608.054688 654.800781 C 609.652344 653.554688 611.980469 653.839844 613.257812 655.4375 C 614.503906 657.035156 614.214844 659.367188 612.621094 660.644531 C 601.894531 669.007812 590.566406 676.832031 578.949219 683.921875 C 578.308594 684.273438 577.640625 684.464844 577 684.464844 Z M 640.769531 634.714844 C 639.8125 634.714844 638.855469 634.328125 638.121094 633.59375 C 636.683594 632.125 636.71875 629.796875 638.152344 628.359375 C 647.664062 619 656.730469 609.039062 665.089844 598.660156 C 666.367188 597.0625 668.699219 596.839844 670.292969 598.117188 C 671.890625 599.394531 672.113281 601.726562 670.835938 603.320312 C 662.28125 613.890625 653.027344 624.109375 643.324219 633.628906 C 642.621094 634.363281 641.695312 634.714844 640.769531 634.714844 Z M 691.582031 571.773438 C 690.910156 571.773438 690.210938 571.578125 689.601562 571.195312 C 687.878906 570.109375 687.367188 567.8125 688.453125 566.085938 C 695.601562 554.816406 702.144531 543.03125 707.921875 531.054688 C 708.816406 529.203125 711.019531 528.4375 712.871094 529.332031 C 714.722656 530.226562 715.488281 532.429688 714.59375 534.28125 C 708.6875 546.511719 701.988281 558.582031 694.710938 570.078125 C 694.007812 571.164062 692.828125 571.773438 691.582031 571.773438 Z M 726.753906 498.898438 C 726.339844 498.898438 725.957031 498.835938 725.542969 498.707031 C 723.625 498.035156 722.605469 495.929688 723.273438 494.011719 C 727.648438 481.429688 731.316406 468.433594 734.191406 455.4375 C 734.636719 453.457031 736.617188 452.179688 738.59375 452.625 C 740.574219 453.074219 741.851562 455.054688 741.402344 457.035156 C 738.46875 470.316406 734.703125 483.601562 730.234375 496.441406 C 729.722656 497.941406 728.285156 498.898438 726.753906 498.898438 Z M 744.277344 419.925781 C 744.148438 419.925781 744.019531 419.925781 743.894531 419.894531 C 741.851562 419.671875 740.382812 417.882812 740.605469 415.839844 C 741.851562 403.863281 742.457031 391.664062 742.457031 379.5625 C 742.457031 378.316406 742.457031 377.039062 742.425781 375.792969 C 742.394531 373.75 744.054688 372.089844 746.09375 372.058594 C 746.09375 372.058594 746.128906 372.058594 746.128906 372.058594 C 748.136719 372.058594 749.796875 373.6875 749.828125 375.730469 C 749.828125 377.007812 749.863281 378.285156 749.863281 379.59375 C 749.863281 391.953125 749.222656 404.40625 747.945312 416.636719 C 747.753906 418.488281 746.160156 419.925781 744.277344 419.925781 Z M 743.414062 339.007812 C 741.5625 339.007812 740 337.632812 739.742188 335.78125 C 738.085938 322.527344 735.660156 309.277344 732.46875 296.34375 C 731.988281 294.363281 733.199219 292.351562 735.179688 291.871094 C 737.160156 291.394531 739.167969 292.605469 739.648438 294.585938 C 742.871094 307.777344 745.363281 321.347656 747.054688 334.855469 C 747.308594 336.867188 745.871094 338.71875 743.828125 338.976562 C 743.734375 339.007812 743.574219 339.007812 743.414062 339.007812 Z M 743.414062 339.007812 " fill-opacity="1" fill-rule="nonzero"/><path fill="#c5cfff" d="M 652.515625 379.5625 C 652.515625 383.796875 652.410156 388.03125 652.203125 392.261719 C 651.996094 396.492188 651.683594 400.714844 651.269531 404.929688 C 650.855469 409.148438 650.335938 413.351562 649.714844 417.539062 C 649.09375 421.730469 648.371094 425.902344 647.546875 430.054688 C 646.71875 434.210938 645.792969 438.34375 644.761719 442.453125 C 643.734375 446.558594 642.605469 450.640625 641.375 454.695312 C 640.148438 458.75 638.820312 462.769531 637.394531 466.757812 C 635.96875 470.746094 634.445312 474.695312 632.824219 478.609375 C 631.203125 482.523438 629.488281 486.394531 627.679688 490.222656 C 625.871094 494.050781 623.964844 497.835938 621.96875 501.570312 C 619.976562 505.304688 617.890625 508.992188 615.710938 512.625 C 613.535156 516.257812 611.269531 519.835938 608.917969 523.355469 C 606.566406 526.878906 604.128906 530.339844 601.609375 533.742188 C 599.085938 537.144531 596.484375 540.484375 593.796875 543.757812 C 591.109375 547.03125 588.347656 550.238281 585.503906 553.378906 C 582.660156 556.515625 579.742188 559.582031 576.75 562.578125 C 573.753906 565.574219 570.691406 568.492188 567.554688 571.335938 C 564.417969 574.183594 561.210938 576.949219 557.9375 579.636719 C 554.667969 582.324219 551.328125 584.925781 547.929688 587.449219 C 544.527344 589.972656 541.070312 592.414062 537.546875 594.765625 C 534.027344 597.117188 530.453125 599.382812 526.820312 601.5625 C 523.191406 603.738281 519.507812 605.828125 515.773438 607.824219 C 512.039062 609.820312 508.261719 611.722656 504.433594 613.535156 C 500.605469 615.347656 496.738281 617.0625 492.824219 618.683594 C 488.914062 620.304688 484.964844 621.828125 480.980469 623.253906 C 476.992188 624.683594 472.972656 626.011719 468.921875 627.242188 C 464.871094 628.46875 460.792969 629.597656 456.6875 630.628906 C 452.578125 631.65625 448.449219 632.585938 444.296875 633.410156 C 440.144531 634.238281 435.976562 634.960938 431.789062 635.582031 C 427.601562 636.207031 423.398438 636.722656 419.1875 637.140625 C 414.972656 637.554688 410.753906 637.867188 406.523438 638.074219 C 402.296875 638.28125 398.066406 638.386719 393.832031 638.386719 C 389.597656 638.386719 385.367188 638.28125 381.136719 638.074219 C 376.910156 637.867188 372.6875 637.554688 368.476562 637.140625 C 364.261719 636.722656 360.0625 636.207031 355.875 635.582031 C 351.6875 634.960938 347.515625 634.238281 343.363281 633.410156 C 339.210938 632.585938 335.082031 631.65625 330.976562 630.628906 C 326.867188 629.597656 322.789062 628.46875 318.738281 627.242188 C 314.6875 626.011719 310.667969 624.683594 306.683594 623.253906 C 302.695312 621.828125 298.746094 620.304688 294.835938 618.683594 C 290.925781 617.0625 287.054688 615.347656 283.230469 613.535156 C 279.402344 611.722656 275.621094 609.820312 271.886719 607.824219 C 268.152344 605.828125 264.472656 603.738281 260.839844 601.5625 C 257.207031 599.382812 253.632812 597.117188 250.113281 594.765625 C 246.59375 592.414062 243.132812 589.972656 239.734375 587.449219 C 236.332031 584.925781 232.996094 582.324219 229.722656 579.636719 C 226.449219 576.949219 223.246094 574.183594 220.109375 571.335938 C 216.972656 568.492188 213.90625 565.574219 210.914062 562.578125 C 207.917969 559.582031 205 556.515625 202.15625 553.378906 C 199.316406 550.238281 196.550781 547.03125 193.863281 543.757812 C 191.179688 540.484375 188.574219 537.144531 186.054688 533.742188 C 183.53125 530.339844 181.09375 526.878906 178.742188 523.355469 C 176.390625 519.835938 174.125 516.257812 171.949219 512.625 C 169.773438 508.992188 167.6875 505.304688 165.691406 501.570312 C 163.695312 497.835938 161.792969 494.050781 159.984375 490.222656 C 158.171875 486.394531 156.457031 482.523438 154.835938 478.609375 C 153.21875 474.695312 151.695312 470.746094 150.269531 466.757812 C 148.839844 462.769531 147.515625 458.75 146.285156 454.695312 C 145.054688 450.640625 143.925781 446.558594 142.898438 442.453125 C 141.871094 438.34375 140.941406 434.210938 140.117188 430.054688 C 139.289062 425.902344 138.566406 421.730469 137.945312 417.539062 C 137.324219 413.351562 136.804688 409.148438 136.390625 404.929688 C 135.976562 400.714844 135.664062 396.492188 135.457031 392.261719 C 135.25 388.03125 135.144531 383.796875 135.144531 379.5625 C 135.144531 375.328125 135.25 371.09375 135.457031 366.863281 C 135.664062 362.632812 135.976562 358.410156 136.390625 354.195312 C 136.804688 349.976562 137.324219 345.773438 137.945312 341.585938 C 138.566406 337.394531 139.289062 333.222656 140.117188 329.070312 C 140.941406 324.914062 141.871094 320.78125 142.898438 316.671875 C 143.925781 312.566406 145.054688 308.484375 146.285156 304.429688 C 147.515625 300.375 148.839844 296.355469 150.269531 292.367188 C 151.695312 288.378906 153.21875 284.429688 154.835938 280.515625 C 156.457031 276.601562 158.171875 272.730469 159.984375 268.902344 C 161.792969 265.074219 163.695312 261.289062 165.691406 257.554688 C 167.6875 253.820312 169.773438 250.132812 171.949219 246.5 C 174.125 242.867188 176.390625 239.289062 178.742188 235.769531 C 181.09375 232.246094 183.53125 228.785156 186.054688 225.382812 C 188.574219 221.980469 191.179688 218.640625 193.863281 215.367188 C 196.550781 212.09375 199.316406 208.886719 202.15625 205.746094 C 205 202.609375 207.917969 199.542969 210.914062 196.546875 C 213.90625 193.550781 216.972656 190.632812 220.109375 187.789062 C 223.246094 184.941406 226.449219 182.175781 229.722656 179.488281 C 232.996094 176.800781 236.332031 174.199219 239.730469 171.675781 C 243.132812 169.152344 246.59375 166.710938 250.113281 164.359375 C 253.632812 162.003906 257.207031 159.742188 260.839844 157.5625 C 264.472656 155.386719 268.152344 153.296875 271.886719 151.300781 C 275.621094 149.304688 279.402344 147.398438 283.230469 145.589844 C 287.054688 143.777344 290.925781 142.0625 294.835938 140.441406 C 298.746094 138.820312 302.695312 137.296875 306.683594 135.871094 C 310.667969 134.441406 314.6875 133.113281 318.738281 131.882812 C 322.789062 130.65625 326.867188 129.523438 330.976562 128.496094 C 335.082031 127.46875 339.210938 126.539062 343.363281 125.710938 C 347.515625 124.886719 351.6875 124.164062 355.875 123.539062 C 360.0625 122.917969 364.261719 122.402344 368.476562 121.984375 C 372.6875 121.570312 376.910156 121.257812 381.136719 121.050781 C 385.367188 120.84375 389.597656 120.738281 393.832031 120.738281 C 398.066406 120.738281 402.296875 120.84375 406.523438 121.050781 C 410.753906 121.257812 414.972656 121.570312 419.1875 121.984375 C 423.398438 122.402344 427.601562 122.917969 431.789062 123.539062 C 435.976562 124.164062 440.144531 124.886719 444.296875 125.710938 C 448.449219 126.539062 452.578125 127.46875 456.6875 128.496094 C 460.792969 129.523438 464.871094 130.65625 468.921875 131.882812 C 472.972656 133.113281 476.992188 134.441406 480.980469 135.871094 C 484.964844 137.296875 488.914062 138.820312 492.824219 140.441406 C 496.738281 142.0625 500.605469 143.777344 504.433594 145.589844 C 508.261719 147.398438 512.039062 149.304688 515.773438 151.300781 C 519.507812 153.296875 523.191406 155.386719 526.820312 157.5625 C 530.453125 159.742188 534.027344 162.003906 537.546875 164.359375 C 541.070312 166.710938 544.527344 169.152344 547.929688 171.675781 C 551.328125 174.199219 554.667969 176.800781 557.9375 179.488281 C 561.210938 182.175781 564.417969 184.941406 567.554688 187.789062 C 570.691406 190.632812 573.753906 193.550781 576.75 196.546875 C 579.742188 199.542969 582.660156 202.609375 585.503906 205.746094 C 588.347656 208.886719 591.109375 212.09375 593.796875 215.367188 C 596.484375 218.640625 599.085938 221.980469 601.609375 225.382812 C 604.128906 228.785156 606.566406 232.246094 608.917969 235.769531 C 611.269531 239.289062 613.535156 242.867188 615.710938 246.5 C 617.886719 250.132812 619.976562 253.820312 621.96875 257.554688 C 623.964844 261.289062 625.867188 265.074219 627.679688 268.902344 C 629.488281 272.730469 631.203125 276.601562 632.824219 280.515625 C 634.445312 284.429688 635.96875 288.378906 637.394531 292.367188 C 638.820312 296.355469 640.148438 300.375 641.375 304.429688 C 642.605469 308.484375 643.734375 312.566406 644.761719 316.671875 C 645.792969 320.78125 646.71875 324.914062 647.546875 329.070312 C 648.371094 333.222656 649.09375 337.394531 649.714844 341.585938 C 650.335938 345.773438 650.855469 349.976562 651.269531 354.195312 C 651.683594 358.410156 651.996094 362.632812 652.203125 366.863281 C 652.410156 371.09375 652.515625 375.328125 652.515625 379.5625 Z M 652.515625 379.5625 " fill-opacity="1" fill-rule="nonzero"/><path fill="#ffffff" d="M 703.902344 175.347656 L 703.933594 340.761719 C 703.933594 348.171875 700.070312 354.78125 692.984375 354.78125 L 435.097656 355.003906 C 428.015625 355.003906 423.832031 350.855469 423.832031 343.445312 L 423.894531 175.3125 Z M 703.902344 175.347656 " fill-opacity="1" fill-rule="nonzero"/><path fill="#05059e" d="M 435.097656 358.742188 C 425.875 358.742188 420.164062 352.898438 420.164062 343.476562 L 420.226562 175.347656 C 420.226562 173.300781 421.886719 171.640625 423.929688 171.640625 C 425.972656 171.640625 427.628906 173.300781 427.628906 175.347656 L 427.566406 343.476562 C 427.566406 348.777344 430.054688 351.332031 435.132812 351.332031 L 693.019531 351.109375 C 695.15625 351.109375 696.878906 350.214844 698.15625 348.425781 C 699.527344 346.511719 700.296875 343.796875 700.261719 340.792969 L 700.230469 175.347656 C 700.230469 173.300781 701.890625 171.640625 703.933594 171.640625 C 705.976562 171.640625 707.636719 173.300781 707.636719 175.347656 L 707.667969 340.761719 C 707.667969 345.296875 706.421875 349.542969 704.15625 352.707031 C 701.476562 356.441406 697.519531 358.484375 693.019531 358.484375 Z M 435.097656 358.742188 " fill-opacity="1" fill-rule="nonzero"/><path fill="#87f9f0" d="M 533.976562 256.011719 L 424.855469 178.445312 C 423.386719 176.910156 423.511719 174.421875 425.171875 173.078125 L 546.488281 72.488281 C 549.710938 69.550781 555.585938 67.921875 559.863281 67.921875 L 565.988281 67.890625 C 570.296875 67.890625 576.203125 69.550781 579.457031 72.519531 L 702.59375 172.792969 C 704.222656 174.132812 704.378906 176.625 702.878906 178.15625 L 594.84375 257.480469 Z M 533.976562 256.011719 " fill-opacity="1" fill-rule="nonzero"/><path fill="#05059e" d="M 594.84375 261.214844 C 593.691406 261.214844 592.574219 260.707031 591.875 259.714844 C 590.660156 258.054688 591.011719 255.753906 592.671875 254.542969 L 700.167969 175.632812 L 577.160156 75.457031 C 577.097656 75.394531 577.03125 75.363281 576.96875 75.296875 C 574.480469 73 569.46875 71.65625 566.019531 71.65625 L 559.894531 71.6875 C 556.476562 71.6875 551.46875 73.03125 549.011719 75.296875 C 548.976562 75.328125 548.914062 75.363281 548.882812 75.425781 L 427.628906 175.890625 L 536.148438 253.007812 C 537.808594 254.191406 538.191406 256.488281 537.007812 258.152344 C 535.828125 259.8125 533.53125 260.195312 531.871094 259.011719 L 422.746094 181.445312 C 422.554688 181.316406 422.394531 181.15625 422.238281 181 C 420.832031 179.53125 420.066406 177.519531 420.195312 175.472656 C 420.320312 173.429688 421.3125 171.515625 422.875 170.238281 L 544.125 69.710938 C 548.308594 65.941406 555.234375 64.25 559.925781 64.25 L 566.054688 64.21875 C 570.808594 64.21875 577.765625 65.941406 581.949219 69.742188 L 704.988281 169.949219 C 706.582031 171.257812 707.539062 173.175781 707.667969 175.21875 C 707.796875 177.261719 707.03125 179.273438 705.59375 180.742188 C 705.433594 180.902344 705.304688 181.03125 705.113281 181.160156 L 597.078125 260.480469 C 596.375 260.960938 595.609375 261.214844 594.84375 261.214844 Z M 594.84375 261.214844 " fill-opacity="1" fill-rule="nonzero"/><path fill="#ffffff" d="M 426.289062 351.363281 L 523.699219 264.824219 L 545.050781 246.558594 C 550.320312 242.054688 557.054688 239.566406 563.980469 239.566406 C 571.289062 239.566406 578.308594 242.3125 583.703125 247.261719 L 602.566406 264.601562 L 699.527344 349.128906 Z M 426.289062 351.363281 " fill-opacity="1" fill-rule="nonzero"/><path fill="#05059e" d="M 426.289062 355.070312 C 425.269531 355.070312 424.246094 354.652344 423.511719 353.824219 C 422.171875 352.292969 422.300781 349.960938 423.832031 348.617188 L 521.242188 262.078125 C 521.273438 262.078125 521.273438 262.046875 521.304688 262.046875 L 542.660156 243.78125 C 548.59375 238.703125 556.191406 235.894531 564.011719 235.894531 C 572.277344 235.894531 580.160156 238.957031 586.226562 244.578125 L 605.054688 261.886719 L 701.988281 346.382812 C 703.519531 347.722656 703.679688 350.054688 702.335938 351.589844 C 700.996094 353.121094 698.667969 353.28125 697.136719 351.941406 L 600.171875 267.410156 C 600.140625 267.378906 600.109375 267.378906 600.109375 267.347656 L 581.246094 250.007812 C 576.554688 245.664062 570.425781 243.300781 564.042969 243.300781 C 557.976562 243.300781 552.105469 245.472656 547.511719 249.402344 L 526.1875 267.632812 L 428.78125 354.175781 C 428.046875 354.75 427.152344 355.070312 426.289062 355.070312 Z M 426.289062 355.070312 " fill-opacity="1" fill-rule="nonzero"/><path fill="#05059e" d="M 551.785156 196.039062 C 547.796875 196.039062 543.042969 194.21875 538.445312 187.992188 C 538.414062 187.960938 538.382812 187.929688 538.382812 187.894531 C 534.234375 181.828125 532.414062 174.964844 533.148438 167.96875 C 533.816406 161.679688 536.5 155.578125 540.871094 150.308594 C 545.53125 144.753906 551.851562 140.601562 558.648438 138.621094 C 566.179688 136.449219 573.871094 136.992188 580.894531 140.1875 C 581.820312 140.601562 582.523438 141.367188 582.839844 142.328125 C 584.851562 148.074219 581.375 160.179688 577.765625 168.769531 C 575.277344 174.707031 568.445312 189.078125 558.871094 194.15625 C 557.085938 195.144531 554.628906 196.039062 551.785156 196.039062 Z M 544.445312 183.648438 C 549.074219 189.90625 552.742188 189.078125 555.394531 187.671875 C 560.59375 184.925781 566.40625 176.816406 570.9375 165.957031 C 574.640625 157.082031 576.140625 149.609375 576.074219 146.222656 C 564.457031 141.910156 553 147.402344 546.550781 155.101562 C 540.773438 161.964844 537.199219 173.078125 544.445312 183.648438 Z M 544.445312 183.648438 " fill-opacity="1" fill-rule="nonzero"/><path fill="#05059e" d="M 563.371094 224.078125 C 554.5 224.078125 543.839844 221.808594 532.507812 214.496094 C 524.371094 209.226562 518.339844 200.988281 515.050781 190.675781 C 512.019531 181.125 511.476562 170.460938 513.488281 159.761719 C 516.996094 140.984375 529.730469 119.046875 554.882812 113.90625 C 579.683594 108.796875 593.886719 115.566406 601.417969 122.144531 C 611.28125 130.734375 616.355469 144.5 615.363281 159.890625 C 614.503906 173.300781 610.671875 182.976562 604.003906 188.664062 C 599.375 192.589844 593.597656 194.347656 587.277344 193.773438 C 583.992188 193.453125 581.117188 191.917969 579.042969 189.363281 C 572.46875 181.351562 574.222656 164.328125 575.375 153.054688 C 575.597656 150.757812 575.882812 147.945312 575.914062 146.667969 C 575.628906 146.125 575.46875 145.519531 575.46875 144.847656 C 575.5 142.835938 577.160156 141.210938 579.171875 141.210938 C 579.203125 141.210938 579.203125 141.210938 579.234375 141.210938 C 580.320312 141.242188 581.375 141.71875 582.109375 142.550781 C 583.703125 144.339844 583.480469 146.542969 582.714844 153.824219 C 581.820312 162.636719 580.128906 179.019531 584.757812 184.671875 C 585.617188 185.726562 586.640625 186.265625 587.980469 186.394531 C 590.949219 186.683594 595.320312 186.332031 599.214844 183.042969 C 604.226562 178.761719 607.257812 170.621094 607.992188 159.441406 C 608.855469 146.351562 604.671875 134.789062 596.566406 127.734375 C 587.566406 119.878906 573.648438 117.609375 556.382812 121.15625 C 534.839844 125.59375 523.859375 144.722656 520.761719 161.136719 C 516.996094 181.15625 523.222656 199.648438 536.5625 208.269531 C 548.5625 216.03125 561.105469 218.457031 573.777344 215.453125 C 583.382812 213.1875 589.511719 208.492188 589.574219 208.460938 C 591.203125 207.214844 593.5 207.503906 594.746094 209.132812 C 595.992188 210.730469 595.703125 213.058594 594.109375 214.304688 C 593.820312 214.527344 586.863281 219.894531 575.820312 222.574219 C 572.277344 223.4375 568.0625 224.078125 563.371094 224.078125 Z M 579.042969 148.585938 C 579.074219 148.585938 579.074219 148.585938 579.042969 148.585938 C 579.074219 148.585938 579.074219 148.585938 579.042969 148.585938 Z M 579.042969 148.585938 Z M 579.042969 148.585938 Z M 579.042969 148.585938 Z M 579.042969 148.585938 Z M 579.042969 148.585938 Z M 579.011719 148.585938 Z M 579.011719 148.585938 Z M 579.011719 148.585938 Z M 579.011719 148.585938 Z M 579.011719 148.585938 Z M 578.980469 148.585938 Z M 578.980469 148.585938 " fill-opacity="1" fill-rule="nonzero"/><path fill="#ffffff" d="M 541.796875 494.90625 L 541.796875 434.617188 C 541.796875 429.824219 537.933594 425.960938 533.148438 425.960938 L 272.324219 425.960938 C 267.535156 425.960938 263.675781 429.859375 263.675781 434.617188 L 263.675781 494.90625 Z M 541.796875 494.90625 " fill-opacity="1" fill-rule="nonzero"/><path fill="#05059e" d="M 541.796875 498.613281 C 539.753906 498.613281 538.09375 496.949219 538.09375 494.90625 L 538.09375 434.617188 C 538.09375 431.871094 535.859375 429.632812 533.117188 429.632812 L 272.292969 429.632812 C 269.546875 429.632812 267.3125 431.871094 267.3125 434.617188 L 267.3125 494.90625 C 267.3125 496.949219 265.652344 498.613281 263.609375 498.613281 C 261.566406 498.613281 259.910156 496.949219 259.910156 494.90625 L 259.910156 434.617188 C 259.910156 427.78125 265.460938 422.257812 272.261719 422.257812 L 533.082031 422.257812 C 539.882812 422.257812 545.433594 427.8125 545.433594 434.617188 L 545.433594 494.90625 C 545.5 496.949219 543.839844 498.613281 541.796875 498.613281 Z M 541.796875 498.613281 " fill-opacity="1" fill-rule="nonzero"/><path fill="#87f9f0" d="M 263.675781 494.90625 L 263.675781 714.578125 C 263.675781 719.371094 267.535156 723.234375 272.324219 723.234375 L 533.148438 723.234375 C 537.933594 723.234375 541.796875 719.371094 541.796875 714.578125 L 541.796875 494.90625 Z M 263.675781 494.90625 " fill-opacity="1" fill-rule="nonzero"/><g clip-path="url(#80282ae8a1)"><path fill="#05059e" d="M 533.148438 726.9375 L 272.324219 726.9375 C 265.527344 726.9375 259.972656 721.382812 259.972656 714.578125 L 259.972656 494.90625 C 259.972656 492.863281 261.632812 491.203125 263.675781 491.203125 C 265.71875 491.203125 267.375 492.863281 267.375 494.90625 L 267.375 714.578125 C 267.375 717.324219 269.609375 719.5625 272.355469 719.5625 L 533.179688 719.5625 C 535.925781 719.5625 538.160156 717.324219 538.160156 714.578125 L 538.160156 494.90625 C 538.160156 492.863281 539.816406 491.203125 541.859375 491.203125 C 543.902344 491.203125 545.5625 492.863281 545.5625 494.90625 L 545.5625 714.578125 C 545.5 721.382812 539.976562 726.9375 533.148438 726.9375 Z M 533.148438 726.9375 " fill-opacity="1" fill-rule="nonzero"/></g><path fill="#05059e" d="M 541.796875 498.613281 L 263.644531 498.613281 C 261.601562 498.613281 259.941406 496.949219 259.941406 494.90625 C 259.941406 492.863281 261.601562 491.203125 263.644531 491.203125 L 541.796875 491.203125 C 543.839844 491.203125 545.5 492.863281 545.5 494.90625 C 545.5 496.949219 543.839844 498.613281 541.796875 498.613281 Z M 541.796875 498.613281 " fill-opacity="1" fill-rule="nonzero"/><path fill="#05059e" d="M 348.03125 484.816406 C 346.402344 484.816406 344.933594 483.730469 344.488281 482.132812 L 337.371094 457.480469 L 330.253906 482.132812 C 329.773438 483.761719 328.273438 484.847656 326.613281 484.816406 C 324.921875 484.785156 323.488281 483.601562 323.101562 481.972656 L 314.230469 445.027344 C 313.75 443.046875 314.964844 441.035156 316.976562 440.554688 C 318.953125 440.078125 320.964844 441.289062 321.445312 443.300781 L 327.027344 466.644531 L 333.796875 443.140625 C 334.242188 441.546875 335.710938 440.460938 337.339844 440.460938 C 338.964844 440.460938 340.433594 441.546875 340.882812 443.140625 L 347.679688 466.644531 L 353.265625 443.300781 C 353.742188 441.324219 355.722656 440.109375 357.734375 440.554688 C 359.710938 441.035156 360.957031 443.015625 360.476562 445.027344 L 351.605469 481.972656 C 351.222656 483.601562 349.785156 484.785156 348.09375 484.816406 C 348.09375 484.816406 348.0625 484.816406 348.03125 484.816406 Z M 348.03125 484.816406 " fill-opacity="1" fill-rule="nonzero"/><path fill="#05059e" d="M 406.183594 484.816406 C 404.554688 484.816406 403.085938 483.730469 402.640625 482.132812 L 395.523438 457.480469 L 388.40625 482.132812 C 387.925781 483.761719 386.425781 484.847656 384.765625 484.816406 C 383.074219 484.785156 381.636719 483.601562 381.253906 481.972656 L 372.414062 445.027344 C 371.9375 443.046875 373.148438 441.035156 375.160156 440.554688 C 377.136719 440.078125 379.148438 441.289062 379.628906 443.300781 L 385.214844 466.644531 L 392.011719 443.140625 C 392.457031 441.546875 393.925781 440.460938 395.554688 440.460938 C 397.214844 440.460938 398.648438 441.546875 399.097656 443.140625 L 405.863281 466.644531 L 411.449219 443.300781 C 411.925781 441.324219 413.90625 440.109375 415.917969 440.554688 C 417.894531 441.035156 419.140625 443.015625 418.660156 445.027344 L 409.789062 481.972656 C 409.40625 483.601562 407.96875 484.785156 406.277344 484.816406 C 406.246094 484.816406 406.214844 484.816406 406.183594 484.816406 Z M 406.183594 484.816406 " fill-opacity="1" fill-rule="nonzero"/><path fill="#05059e" d="M 464.367188 484.816406 C 462.738281 484.816406 461.269531 483.730469 460.824219 482.132812 L 453.707031 457.480469 L 446.589844 482.132812 C 446.109375 483.761719 444.640625 484.847656 442.949219 484.816406 C 441.257812 484.785156 439.824219 483.601562 439.441406 481.972656 L 430.597656 445.027344 C 430.121094 443.046875 431.332031 441.035156 433.34375 440.554688 C 435.324219 440.078125 437.332031 441.289062 437.8125 443.300781 L 443.398438 466.644531 L 450.195312 443.140625 C 450.644531 441.546875 452.109375 440.460938 453.738281 440.460938 C 455.398438 440.460938 456.835938 441.546875 457.28125 443.140625 L 464.046875 466.644531 L 469.632812 443.300781 C 470.113281 441.324219 472.089844 440.109375 474.101562 440.554688 C 476.082031 441.035156 477.324219 443.015625 476.847656 445.027344 L 467.972656 481.972656 C 467.589844 483.601562 466.152344 484.785156 464.460938 484.816406 C 464.429688 484.816406 464.398438 484.816406 464.367188 484.816406 Z M 464.367188 484.816406 " fill-opacity="1" fill-rule="nonzero"/><path fill="#05059e" d="M 487.632812 484.816406 C 487.378906 484.816406 487.15625 484.785156 486.898438 484.753906 C 486.675781 484.6875 486.421875 484.625 486.199219 484.527344 C 485.972656 484.433594 485.75 484.335938 485.558594 484.175781 C 485.367188 484.050781 485.175781 483.890625 484.984375 483.730469 C 484.824219 483.570312 484.664062 483.378906 484.539062 483.15625 C 484.410156 482.964844 484.28125 482.742188 484.1875 482.515625 C 484.089844 482.292969 484.027344 482.070312 483.964844 481.8125 C 483.898438 481.558594 483.898438 481.335938 483.898438 481.078125 C 483.898438 480.824219 483.933594 480.601562 483.964844 480.34375 C 483.996094 480.121094 484.089844 479.867188 484.1875 479.644531 C 484.28125 479.417969 484.378906 479.195312 484.539062 479.003906 C 484.664062 478.8125 484.824219 478.621094 484.984375 478.429688 C 485.144531 478.269531 485.335938 478.109375 485.558594 477.980469 C 485.75 477.855469 485.972656 477.726562 486.199219 477.632812 C 486.421875 477.535156 486.644531 477.472656 486.898438 477.40625 C 487.378906 477.3125 487.859375 477.3125 488.335938 477.40625 C 488.558594 477.472656 488.816406 477.535156 489.039062 477.632812 C 489.261719 477.726562 489.484375 477.824219 489.675781 477.980469 C 489.867188 478.140625 490.058594 478.269531 490.25 478.429688 C 490.410156 478.589844 490.570312 478.78125 490.699219 479.003906 C 490.824219 479.195312 490.953125 479.417969 491.050781 479.644531 C 491.144531 479.867188 491.207031 480.089844 491.273438 480.34375 C 491.304688 480.601562 491.335938 480.824219 491.335938 481.078125 C 491.335938 481.335938 491.304688 481.558594 491.273438 481.8125 C 491.242188 482.039062 491.144531 482.292969 491.050781 482.515625 C 490.953125 482.742188 490.859375 482.964844 490.699219 483.15625 C 490.570312 483.347656 490.410156 483.539062 490.25 483.730469 C 490.089844 483.890625 489.898438 484.050781 489.675781 484.175781 C 489.484375 484.304688 489.261719 484.433594 489.039062 484.527344 C 488.816406 484.625 488.589844 484.6875 488.335938 484.753906 C 488.113281 484.816406 487.890625 484.816406 487.632812 484.816406 Z M 487.632812 484.816406 " fill-opacity="1" fill-rule="nonzero"/><path fill="#ffe261" d="M 481.539062 616.414062 C 481.539062 617.851562 481.503906 619.285156 481.433594 620.722656 C 481.363281 622.15625 481.257812 623.585938 481.117188 625.015625 C 480.976562 626.445312 480.800781 627.871094 480.589844 629.289062 C 480.378906 630.710938 480.132812 632.125 479.851562 633.535156 C 479.574219 634.941406 479.257812 636.34375 478.910156 637.738281 C 478.5625 639.128906 478.179688 640.515625 477.761719 641.886719 C 477.34375 643.261719 476.894531 644.625 476.410156 645.976562 C 475.925781 647.332031 475.410156 648.671875 474.863281 649.996094 C 474.3125 651.324219 473.730469 652.636719 473.117188 653.933594 C 472.503906 655.234375 471.859375 656.515625 471.179688 657.78125 C 470.503906 659.046875 469.796875 660.296875 469.058594 661.53125 C 468.320312 662.761719 467.554688 663.972656 466.757812 665.167969 C 465.960938 666.363281 465.132812 667.535156 464.277344 668.691406 C 463.421875 669.84375 462.539062 670.976562 461.628906 672.085938 C 460.71875 673.195312 459.78125 674.28125 458.816406 675.347656 C 457.851562 676.410156 456.863281 677.449219 455.847656 678.464844 C 454.835938 679.480469 453.792969 680.472656 452.730469 681.4375 C 451.667969 682.402344 450.582031 683.339844 449.472656 684.25 C 448.363281 685.160156 447.230469 686.042969 446.078125 686.898438 C 444.925781 687.753906 443.75 688.582031 442.558594 689.378906 C 441.363281 690.175781 440.152344 690.945312 438.921875 691.683594 C 437.691406 692.421875 436.441406 693.128906 435.175781 693.808594 C 433.910156 694.484375 432.628906 695.128906 431.332031 695.742188 C 430.03125 696.359375 428.722656 696.9375 427.394531 697.488281 C 426.070312 698.039062 424.730469 698.554688 423.378906 699.039062 C 422.027344 699.523438 420.664062 699.972656 419.289062 700.390625 C 417.917969 700.808594 416.535156 701.191406 415.140625 701.539062 C 413.75 701.886719 412.347656 702.203125 410.941406 702.484375 C 409.535156 702.761719 408.121094 703.007812 406.699219 703.21875 C 405.28125 703.429688 403.855469 703.605469 402.425781 703.746094 C 401 703.886719 399.566406 703.992188 398.132812 704.0625 C 396.699219 704.132812 395.265625 704.167969 393.832031 704.167969 C 392.394531 704.167969 390.960938 704.132812 389.527344 704.0625 C 388.09375 703.992188 386.664062 703.886719 385.234375 703.746094 C 383.804688 703.605469 382.382812 703.429688 380.960938 703.21875 C 379.542969 703.007812 378.128906 702.761719 376.71875 702.484375 C 375.3125 702.203125 373.914062 701.886719 372.519531 701.539062 C 371.128906 701.191406 369.746094 700.808594 368.371094 700.390625 C 366.996094 699.972656 365.632812 699.523438 364.285156 699.039062 C 362.933594 698.554688 361.59375 698.039062 360.265625 697.488281 C 358.941406 696.9375 357.628906 696.359375 356.332031 695.742188 C 355.035156 695.128906 353.75 694.484375 352.484375 693.808594 C 351.21875 693.128906 349.972656 692.421875 348.742188 691.683594 C 347.507812 690.945312 346.296875 690.175781 345.101562 689.378906 C 343.910156 688.582031 342.738281 687.753906 341.582031 686.898438 C 340.429688 686.042969 339.300781 685.160156 338.191406 684.25 C 337.082031 683.339844 335.992188 682.402344 334.929688 681.4375 C 333.867188 680.472656 332.828125 679.480469 331.8125 678.464844 C 330.796875 677.449219 329.808594 676.410156 328.84375 675.347656 C 327.878906 674.28125 326.941406 673.195312 326.03125 672.085938 C 325.121094 670.976562 324.238281 669.84375 323.382812 668.691406 C 322.527344 667.535156 321.703125 666.363281 320.90625 665.167969 C 320.109375 663.972656 319.339844 662.761719 318.601562 661.527344 C 317.863281 660.296875 317.15625 659.046875 316.480469 657.78125 C 315.804688 656.515625 315.160156 655.234375 314.542969 653.933594 C 313.929688 652.636719 313.347656 651.324219 312.800781 649.996094 C 312.25 648.671875 311.734375 647.332031 311.25 645.976562 C 310.765625 644.625 310.316406 643.261719 309.902344 641.886719 C 309.484375 640.515625 309.101562 639.128906 308.753906 637.738281 C 308.402344 636.34375 308.089844 634.941406 307.808594 633.535156 C 307.527344 632.125 307.285156 630.710938 307.074219 629.289062 C 306.863281 627.871094 306.6875 626.445312 306.546875 625.015625 C 306.40625 623.585938 306.300781 622.15625 306.230469 620.722656 C 306.160156 619.285156 306.125 617.851562 306.125 616.414062 C 306.125 614.980469 306.160156 613.542969 306.230469 612.109375 C 306.300781 610.675781 306.40625 609.242188 306.546875 607.8125 C 306.6875 606.382812 306.863281 604.960938 307.074219 603.539062 C 307.285156 602.117188 307.527344 600.703125 307.808594 599.292969 C 308.089844 597.886719 308.402344 596.484375 308.753906 595.09375 C 309.101562 593.699219 309.484375 592.316406 309.902344 590.941406 C 310.316406 589.566406 310.765625 588.203125 311.25 586.851562 C 311.734375 585.5 312.25 584.160156 312.800781 582.832031 C 313.347656 581.507812 313.929688 580.195312 314.542969 578.894531 C 315.160156 577.597656 315.804688 576.316406 316.480469 575.046875 C 317.15625 573.78125 317.863281 572.53125 318.601562 571.300781 C 319.339844 570.070312 320.109375 568.855469 320.90625 567.660156 C 321.703125 566.46875 322.527344 565.292969 323.382812 564.140625 C 324.238281 562.988281 325.121094 561.855469 326.03125 560.746094 C 326.941406 559.632812 327.878906 558.546875 328.84375 557.484375 C 329.808594 556.417969 330.796875 555.378906 331.8125 554.363281 C 332.828125 553.347656 333.867188 552.359375 334.929688 551.394531 C 335.992188 550.429688 337.082031 549.492188 338.191406 548.582031 C 339.300781 547.667969 340.429688 546.785156 341.582031 545.929688 C 342.738281 545.074219 343.910156 544.246094 345.101562 543.449219 C 346.296875 542.652344 347.507812 541.882812 348.742188 541.144531 C 349.972656 540.40625 351.21875 539.699219 352.484375 539.023438 C 353.75 538.347656 355.035156 537.699219 356.332031 537.085938 C 357.628906 536.472656 358.941406 535.890625 360.265625 535.339844 C 361.59375 534.792969 362.933594 534.273438 364.28125 533.789062 C 365.632812 533.308594 366.996094 532.855469 368.371094 532.441406 C 369.746094 532.023438 371.128906 531.640625 372.519531 531.289062 C 373.914062 530.941406 375.3125 530.628906 376.71875 530.347656 C 378.128906 530.066406 379.542969 529.820312 380.960938 529.609375 C 382.382812 529.398438 383.804688 529.222656 385.234375 529.082031 C 386.664062 528.941406 388.09375 528.835938 389.527344 528.765625 C 390.960938 528.695312 392.394531 528.660156 393.832031 528.660156 C 395.265625 528.660156 396.699219 528.695312 398.132812 528.765625 C 399.566406 528.835938 401 528.941406 402.425781 529.082031 C 403.855469 529.222656 405.28125 529.398438 406.699219 529.609375 C 408.121094 529.820312 409.535156 530.066406 410.941406 530.347656 C 412.347656 530.628906 413.75 530.941406 415.140625 531.289062 C 416.535156 531.640625 417.917969 532.023438 419.289062 532.441406 C 420.664062 532.855469 422.027344 533.308594 423.378906 533.789062 C 424.730469 534.273438 426.070312 534.792969 427.394531 535.339844 C 428.722656 535.890625 430.03125 536.472656 431.332031 537.085938 C 432.628906 537.699219 433.910156 538.347656 435.175781 539.023438 C 436.441406 539.699219 437.691406 540.40625 438.921875 541.144531 C 440.152344 541.882812 441.363281 542.652344 442.558594 543.449219 C 443.75 544.246094 444.925781 545.074219 446.078125 545.929688 C 447.230469 546.785156 448.363281 547.667969 449.472656 548.582031 C 450.582031 549.492188 451.667969 550.429688 452.730469 551.394531 C 453.792969 552.359375 454.835938 553.347656 455.847656 554.363281 C 456.863281 555.378906 457.851562 556.417969 458.816406 557.484375 C 459.78125 558.546875 460.71875 559.632812 461.628906 560.746094 C 462.539062 561.855469 463.421875 562.988281 464.277344 564.140625 C 465.132812 565.292969 465.960938 566.46875 466.757812 567.660156 C 467.554688 568.855469 468.320312 570.070312 469.058594 571.300781 C 469.796875 572.53125 470.503906 573.78125 471.179688 575.046875 C 471.859375 576.316406 472.503906 577.597656 473.117188 578.894531 C 473.730469 580.195312 474.3125 581.507812 474.863281 582.832031 C 475.410156 584.160156 475.925781 585.5 476.410156 586.851562 C 476.894531 588.203125 477.34375 589.566406 477.761719 590.941406 C 478.179688 592.316406 478.5625 593.699219 478.910156 595.09375 C 479.257812 596.484375 479.574219 597.886719 479.851562 599.292969 C 480.132812 600.703125 480.378906 602.117188 480.589844 603.539062 C 480.800781 604.960938 480.976562 606.382812 481.117188 607.8125 C 481.257812 609.242188 481.363281 610.675781 481.433594 612.109375 C 481.503906 613.542969 481.539062 614.980469 481.539062 616.414062 Z M 481.539062 616.414062 " fill-opacity="1" fill-rule="nonzero"/><path fill="#05059e" d="M 393.832031 707.875 C 369.414062 707.875 346.464844 698.355469 329.199219 681.082031 C 311.933594 663.804688 302.421875 640.84375 302.421875 616.414062 C 302.421875 591.984375 311.933594 569.023438 329.199219 551.75 C 346.464844 534.472656 369.414062 524.957031 393.832031 524.957031 C 418.246094 524.957031 441.195312 534.472656 458.460938 551.75 C 475.730469 569.023438 485.242188 591.984375 485.242188 616.414062 C 485.242188 640.84375 475.730469 663.804688 458.460938 681.082031 C 441.195312 698.355469 418.246094 707.875 393.832031 707.875 Z M 393.832031 532.332031 C 347.519531 532.332031 309.824219 570.046875 309.824219 616.382812 C 309.824219 662.71875 347.519531 700.433594 393.832031 700.433594 C 440.140625 700.433594 477.835938 662.71875 477.835938 616.382812 C 477.835938 570.046875 440.175781 532.332031 393.832031 532.332031 Z M 393.832031 532.332031 " fill-opacity="1" fill-rule="nonzero"/><path fill="#ffffff" d="M 392.777344 603.003906 C 384.605469 603.003906 378 609.613281 378 617.789062 L 378 669.808594 C 378 677.984375 384.605469 684.59375 392.777344 684.59375 C 400.949219 684.59375 407.554688 677.984375 407.554688 669.808594 L 407.554688 617.789062 C 407.554688 609.613281 400.949219 603.003906 392.777344 603.003906 Z M 392.777344 603.003906 " fill-opacity="1" fill-rule="nonzero"/><path fill="#05059e" d="M 392.777344 688.296875 C 382.597656 688.296875 374.296875 679.996094 374.296875 669.808594 L 374.296875 617.789062 C 374.296875 607.601562 382.597656 599.296875 392.777344 599.296875 C 402.960938 599.296875 411.257812 607.601562 411.257812 617.789062 L 411.257812 669.808594 C 411.257812 679.996094 402.960938 688.296875 392.777344 688.296875 Z M 392.777344 606.707031 C 386.648438 606.707031 381.703125 611.6875 381.703125 617.789062 L 381.703125 669.808594 C 381.703125 675.9375 386.679688 680.890625 392.777344 680.890625 C 398.875 680.890625 403.851562 675.90625 403.851562 669.808594 L 403.851562 617.789062 C 403.851562 611.65625 398.875 606.707031 392.777344 606.707031 Z M 392.777344 606.707031 " fill-opacity="1" fill-rule="nonzero"/><path fill="#ffffff" d="M 392.777344 558.390625 C 384.605469 558.390625 378 565 378 573.175781 L 378 574.933594 C 378 583.109375 384.605469 589.71875 392.777344 589.71875 C 400.949219 589.71875 407.554688 583.109375 407.554688 574.933594 L 407.554688 573.175781 C 407.554688 565 400.949219 558.390625 392.777344 558.390625 Z M 392.777344 558.390625 " fill-opacity="1" fill-rule="nonzero"/><path fill="#05059e" d="M 392.777344 593.421875 C 382.597656 593.421875 374.296875 585.121094 374.296875 574.933594 L 374.296875 573.175781 C 374.296875 562.988281 382.597656 554.6875 392.777344 554.6875 C 402.960938 554.6875 411.257812 562.988281 411.257812 573.175781 L 411.257812 574.933594 C 411.257812 585.121094 402.960938 593.421875 392.777344 593.421875 Z M 392.777344 562.09375 C 386.648438 562.09375 381.703125 567.078125 381.703125 573.175781 L 381.703125 574.933594 C 381.703125 581.0625 386.679688 586.015625 392.777344 586.015625 C 398.875 586.015625 403.851562 581.03125 403.851562 574.933594 L 403.851562 573.175781 C 403.851562 567.078125 398.875 562.09375 392.777344 562.09375 Z M 392.777344 562.09375 " fill-opacity="1" fill-rule="nonzero"/><path fill="#ffffff" d="M 175.839844 330.640625 L 202.171875 343.191406 C 211.171875 347.5 221.992188 344.59375 227.609375 336.386719 L 227.671875 336.292969 C 257.164062 293.308594 284.070312 248.601562 308.261719 202.457031 C 308.292969 202.425781 308.292969 202.394531 308.324219 202.363281 C 312.632812 194.21875 310.464844 184.160156 303.125 178.539062 L 278.707031 159.859375 C 274.78125 156.601562 273.632812 151.109375 275.898438 146.574219 L 308.804688 82.226562 C 311.550781 76.703125 318.378906 74.5 323.902344 77.375 C 325.144531 78.042969 326.390625 78.746094 327.605469 79.480469 C 379.628906 110.328125 386.011719 173.941406 364.433594 230.464844 C 347.136719 275.777344 309.410156 338.304688 279.1875 373.335938 C 247.332031 410.28125 204.53125 436.660156 157.457031 424.078125 C 146.699219 421.203125 136.261719 416.703125 126.433594 410.570312 L 124.101562 409.101562 C 118.933594 405.652344 117.65625 398.660156 121.261719 393.613281 L 162.753906 334.375 C 165.691406 330.351562 171.117188 328.789062 175.839844 330.640625 Z M 175.839844 330.640625 " fill-opacity="1" fill-rule="nonzero"/><path fill="#05059e" d="M 181.363281 431.039062 C 173.03125 431.039062 164.699219 429.921875 156.433594 427.71875 C 145.136719 424.683594 134.378906 420.023438 124.421875 413.761719 L 122.09375 412.292969 C 122.058594 412.261719 122.027344 412.261719 121.996094 412.230469 C 118.644531 409.996094 116.410156 406.609375 115.675781 402.652344 C 114.972656 398.722656 115.835938 394.792969 118.167969 391.539062 L 159.65625 332.332031 C 159.65625 332.332031 159.65625 332.300781 159.691406 332.300781 C 163.648438 326.777344 170.828125 324.667969 177.179688 327.191406 C 177.242188 327.222656 177.339844 327.253906 177.402344 327.285156 L 203.734375 339.835938 C 211.042969 343.316406 219.980469 340.953125 224.542969 334.28125 L 224.609375 334.183594 C 253.90625 291.457031 280.941406 246.558594 304.976562 200.734375 L 305.039062 200.636719 C 308.515625 194.027344 306.761719 185.980469 300.859375 181.476562 L 276.441406 162.796875 C 276.410156 162.765625 276.378906 162.734375 276.3125 162.699219 C 271.078125 158.324219 269.515625 151.042969 272.546875 144.945312 C 272.546875 144.945312 272.546875 144.914062 272.578125 144.914062 L 305.484375 80.597656 C 307.273438 77.054688 310.335938 74.402344 314.136719 73.191406 C 317.964844 71.945312 322.019531 72.296875 325.59375 74.148438 C 325.625 74.148438 325.625 74.179688 325.65625 74.179688 C 326.933594 74.882812 328.242188 75.617188 329.488281 76.351562 C 354.734375 91.328125 371.234375 114.960938 377.234375 144.65625 C 379.945312 158.164062 380.457031 172.695312 378.765625 187.832031 C 377.136719 202.425781 373.46875 217.210938 367.882812 231.835938 C 350.839844 276.449219 313.113281 339.675781 281.996094 375.792969 C 264.28125 396.328125 245.324219 411.433594 225.628906 420.660156 C 210.882812 427.589844 196.105469 431.039062 181.363281 431.039062 Z M 126.082031 406.066406 L 128.347656 407.503906 C 137.667969 413.347656 147.785156 417.753906 158.347656 420.566406 C 211.554688 434.808594 255.121094 395.625 276.34375 371.003906 C 307.015625 335.429688 344.167969 273.160156 360.925781 229.21875 C 378.957031 181.988281 380.523438 115.277344 325.65625 82.738281 C 324.476562 82.035156 323.296875 81.367188 322.082031 80.695312 C 320.292969 79.769531 318.285156 79.609375 316.367188 80.214844 C 314.484375 80.824219 312.953125 82.132812 312.058594 83.921875 C 312.058594 83.921875 312.058594 83.953125 312.027344 83.953125 L 279.121094 148.265625 C 277.652344 151.269531 278.386719 154.8125 280.941406 156.984375 L 305.292969 175.632812 C 314.070312 182.339844 316.6875 194.316406 311.519531 204.117188 L 311.453125 204.214844 C 287.292969 250.292969 260.101562 295.449219 230.640625 338.433594 L 230.578125 338.527344 C 227.351562 343.222656 222.566406 346.605469 217.042969 348.109375 C 211.523438 349.578125 205.648438 349.035156 200.511719 346.574219 L 174.308594 334.089844 C 171.179688 332.90625 167.636719 333.929688 165.691406 336.644531 L 124.199219 395.847656 C 124.199219 395.847656 124.199219 395.878906 124.167969 395.878906 C 123.019531 397.476562 122.570312 399.425781 122.921875 401.375 C 123.335938 403.289062 124.453125 404.980469 126.082031 406.066406 Z M 126.082031 406.066406 " fill-opacity="1" fill-rule="nonzero"/><path fill="#ffe261" d="M 58.003906 160.5625 C 58.003906 120.675781 100.453125 88.328125 152.796875 88.328125 C 205.140625 88.328125 247.589844 120.675781 247.589844 160.5625 C 247.589844 190.355469 223.90625 215.933594 190.074219 226.984375 C 187.96875 227.652344 187.203125 230.304688 188.574219 231.996094 C 196.011719 241.128906 206.925781 248.570312 213.628906 252.625 C 215.226562 253.617188 214.523438 256.105469 212.640625 256.042969 C 198.980469 255.660156 168.402344 252.882812 149.347656 235.957031 C 147.019531 233.878906 144.113281 232.476562 141.019531 232.1875 C 94.261719 227.8125 58.003906 197.414062 58.003906 160.5625 Z M 58.003906 160.5625 " fill-opacity="1" fill-rule="nonzero"/><path fill="#05059e" d="M 212.734375 259.746094 C 212.671875 259.746094 212.640625 259.746094 212.574219 259.746094 C 205.265625 259.554688 194.0625 258.691406 182.191406 255.820312 C 167.542969 252.242188 155.667969 246.496094 146.957031 238.734375 C 145.105469 237.074219 142.933594 236.117188 140.730469 235.894531 C 117.207031 233.6875 95.472656 224.972656 79.578125 211.367188 C 63.269531 197.445312 54.300781 179.371094 54.300781 160.5625 C 54.300781 150.183594 56.949219 140.125 62.214844 130.640625 C 67.226562 121.601562 74.410156 113.492188 83.535156 106.527344 C 102.082031 92.414062 126.6875 84.621094 152.828125 84.621094 C 178.96875 84.621094 203.542969 92.414062 222.117188 106.527344 C 231.246094 113.457031 238.398438 121.570312 243.4375 130.640625 C 248.707031 140.089844 251.355469 150.152344 251.355469 160.5625 C 251.355469 190.929688 228.085938 218.234375 192.023438 230.242188 C 199.265625 238.863281 209.894531 245.953125 215.640625 249.464844 C 217.808594 250.804688 218.800781 253.328125 218.097656 255.789062 C 217.332031 258.183594 215.191406 259.746094 212.734375 259.746094 Z M 152.796875 92.03125 C 102.558594 92.03125 61.671875 122.785156 61.671875 160.5625 C 61.671875 195.050781 95.953125 224.269531 141.402344 228.546875 C 145.199219 228.898438 148.804688 230.527344 151.839844 233.210938 C 167.285156 246.941406 191.320312 250.902344 205.808594 251.988281 C 199.105469 247.421875 191.480469 241.386719 185.734375 234.328125 C 184.296875 232.570312 183.851562 230.242188 184.488281 228.070312 C 185.128906 225.898438 186.789062 224.171875 188.957031 223.46875 C 222.34375 212.582031 243.917969 187.894531 243.917969 160.5625 C 243.886719 122.785156 203.03125 92.03125 152.796875 92.03125 Z M 152.796875 92.03125 " fill-opacity="1" fill-rule="nonzero"/><path fill="#87f9f0" d="M 161.699219 193.324219 C 161.699219 160.113281 126.367188 133.195312 82.769531 133.195312 C 39.171875 133.195312 3.839844 160.113281 3.839844 193.324219 C 3.839844 218.136719 23.566406 239.4375 51.714844 248.601562 C 53.472656 249.175781 54.109375 251.347656 52.960938 252.785156 C 46.769531 260.386719 37.671875 266.582031 32.085938 269.964844 C 30.746094 270.796875 31.351562 272.839844 32.917969 272.808594 C 44.277344 272.488281 69.75 270.15625 85.609375 256.105469 C 87.558594 254.382812 89.953125 253.234375 92.539062 252.976562 C 131.507812 249.335938 161.699219 224.046875 161.699219 193.324219 Z M 161.699219 193.324219 " fill-opacity="1" fill-rule="nonzero"/><path fill="#05059e" d="M 32.851562 276.542969 C 30.523438 276.542969 28.511719 275.042969 27.875 272.808594 C 27.203125 270.507812 28.128906 268.113281 30.171875 266.835938 C 34.800781 264.027344 43.160156 258.4375 49.097656 251.667969 C 19.289062 241.417969 0.136719 218.679688 0.136719 193.355469 C 0.136719 176.113281 8.851562 159.984375 24.714844 147.882812 C 40.257812 136.035156 60.875 129.519531 82.769531 129.519531 C 104.664062 129.519531 125.285156 136.035156 140.828125 147.882812 C 156.691406 159.953125 165.402344 176.113281 165.402344 193.355469 C 165.402344 209.226562 157.839844 224.398438 144.148438 236.117188 C 130.804688 247.515625 112.613281 254.828125 92.886719 256.679688 C 91.195312 256.839844 89.503906 257.609375 88.070312 258.886719 C 80.726562 265.398438 70.769531 270.222656 58.480469 273.222656 C 48.523438 275.648438 39.140625 276.351562 33.042969 276.511719 C 32.980469 276.542969 32.917969 276.542969 32.851562 276.542969 Z M 82.769531 136.898438 C 41.277344 136.898438 7.542969 162.222656 7.542969 193.324219 C 7.542969 215.804688 25.320312 236.117188 52.863281 245.089844 C 54.84375 245.726562 56.375 247.324219 56.980469 249.335938 C 57.554688 251.347656 57.140625 253.519531 55.832031 255.117188 C 51.523438 260.386719 46.003906 264.984375 40.894531 268.625 C 52.992188 267.476562 71.183594 263.960938 83.152344 253.328125 C 85.769531 250.996094 88.898438 249.59375 92.1875 249.273438 C 129.71875 245.761719 158 221.683594 158 193.292969 C 158 162.222656 124.261719 136.898438 82.769531 136.898438 Z M 82.769531 136.898438 " fill-opacity="1" fill-rule="nonzero"/></svg>