<svg xmlns="http://www.w3.org/2000/svg" xmlns:xlink="http://www.w3.org/1999/xlink" width="500" zoomAndPan="magnify" viewBox="0 0 375 374.999991" height="500" preserveAspectRatio="xMidYMid meet" version="1.0"><defs><clipPath id="eb9f708384"><path d="M 194 91 L 317 91 L 317 284.625 L 194 284.625 Z M 194 91 " clip-rule="nonzero"/></clipPath><clipPath id="17d4c3b8dd"><path d="M 56.25 121 L 182 121 L 182 257 L 56.25 257 Z M 56.25 121 " clip-rule="nonzero"/></clipPath></defs><path fill="#000000" d="M 187.5 0 C 84.050781 0 0 84.050781 0 187.5 C 0 290.949219 84.050781 375 187.5 375 C 290.949219 375 375 290.949219 375 187.5 C 375 84.050781 290.949219 0 187.5 0 Z M 187.5 8.152344 C 286.65625 8.152344 366.847656 88.34375 366.847656 187.5 C 366.847656 286.65625 286.65625 366.847656 187.5 366.847656 C 88.34375 366.847656 8.152344 286.65625 8.152344 187.5 C 8.152344 88.34375 88.34375 8.152344 187.5 8.152344 Z M 187.5 8.152344 " fill-opacity="1" fill-rule="nonzero"/><path fill="#000000" d="M 247.445312 164.042969 C 247.445312 162.902344 246.519531 161.980469 245.382812 161.980469 C 244.242188 161.980469 243.320312 162.902344 243.320312 164.042969 C 243.320312 195.621094 217.628906 221.308594 186.054688 221.308594 C 154.480469 221.308594 128.792969 195.621094 128.792969 164.042969 C 128.792969 132.46875 154.480469 106.777344 186.054688 106.777344 C 200.988281 106.777344 215.121094 112.492188 225.851562 122.867188 C 229.207031 126.074219 239.515625 138.230469 231.347656 160.039062 C 223.984375 179.710938 213.445312 180.371094 213.398438 180.375 C 206.28125 180.375 200.492188 174.582031 200.492188 167.464844 L 200.492188 132.222656 C 200.492188 131.082031 199.566406 130.160156 198.429688 130.160156 C 197.289062 130.160156 196.367188 131.082031 196.367188 132.222656 L 196.367188 139.730469 C 194.542969 137.117188 192.203125 135.164062 189.390625 134.160156 C 178.867188 130.402344 166.085938 140.132812 160.300781 156.316406 C 154.605469 172.203125 158.402344 188.160156 168.765625 191.882812 C 170.289062 192.425781 171.855469 192.6875 173.445312 192.6875 C 182.320312 192.6875 191.792969 184.535156 196.988281 171.957031 C 198.96875 179.171875 205.570312 184.5 213.433594 184.5 C 213.972656 184.492188 226.773438 184.03125 235.210938 161.488281 C 244.265625 137.3125 232.519531 123.535156 228.710938 119.898438 C 217.214844 108.777344 202.066406 102.65625 186.054688 102.65625 C 152.207031 102.65625 124.667969 130.191406 124.667969 164.042969 C 124.667969 197.894531 152.207031 225.429688 186.054688 225.429688 C 219.90625 225.429688 247.445312 197.894531 247.445312 164.042969 Z M 247.445312 164.042969 " fill-opacity="1" fill-rule="nonzero"/><g clip-path="url(#eb9f708384)"><path fill="#000000" d="M 313.566406 119.972656 C 311.027344 110.261719 304.484375 102.585938 295.621094 98.917969 L 281.308594 92.953125 C 276.941406 91.144531 272.066406 91.324219 267.582031 93.46875 C 263.171875 95.574219 259.664062 99.34375 257.703125 104.070312 L 251.167969 119.765625 C 250.09375 122.363281 249.546875 125.066406 249.546875 127.792969 C 249.546875 135.214844 253.628906 141.707031 259.953125 144.335938 C 265.367188 146.585938 268.613281 152.273438 268.230469 158.828125 C 267.753906 166.925781 266.097656 179.203125 260.921875 191.6875 C 255.722656 204.175781 248.191406 214.003906 242.792969 220.054688 C 239.761719 223.445312 235.65625 225.390625 231.523438 225.390625 C 229.8125 225.390625 228.179688 225.070312 226.667969 224.4375 C 217.753906 220.722656 207.164062 225.707031 203.0625 235.546875 L 196.542969 251.242188 C 192.464844 261.085938 196.402344 272.109375 205.332031 275.8125 L 219.640625 281.753906 C 223.328125 283.285156 227.226562 284.042969 231.144531 284.042969 C 236.640625 284.042969 242.175781 282.550781 247.246094 279.609375 C 261.335938 271.394531 281.984375 252.316406 300.363281 208.078125 C 318.742188 163.855469 317.691406 135.757812 313.566406 119.972656 Z M 313.566406 119.972656 " fill-opacity="1" fill-rule="nonzero"/></g><g clip-path="url(#17d4c3b8dd)"><path fill="#000000" d="M 179.066406 230.320312 C 177.929688 230.320312 177.003906 231.242188 177.003906 232.378906 L 177.003906 249.710938 L 150.597656 227.402344 C 150.226562 227.085938 149.757812 226.914062 149.265625 226.914062 L 71.550781 226.914062 C 65.386719 226.914062 60.375 221.910156 60.375 215.757812 L 60.375 137.214844 C 60.375 131.0625 65.386719 126.058594 71.550781 126.058594 L 131.289062 126.058594 C 132.425781 126.058594 133.351562 125.136719 133.351562 123.996094 C 133.351562 122.855469 132.425781 121.933594 131.289062 121.933594 L 71.550781 121.933594 C 63.113281 121.933594 56.25 128.789062 56.25 137.214844 L 56.25 215.757812 C 56.25 224.183594 63.113281 231.039062 71.550781 231.039062 L 148.515625 231.039062 L 177.734375 255.730469 C 178.113281 256.050781 178.585938 256.214844 179.066406 256.214844 C 179.359375 256.214844 179.65625 256.152344 179.933594 256.023438 C 180.664062 255.6875 181.128906 254.957031 181.128906 254.152344 L 181.128906 232.378906 C 181.128906 231.242188 180.203125 230.320312 179.066406 230.320312 Z M 179.066406 230.320312 " fill-opacity="1" fill-rule="nonzero"/></g><path fill="#000000" d="M 113.945312 152.824219 C 115.085938 152.824219 116.007812 151.902344 116.007812 150.761719 C 116.007812 149.621094 115.085938 148.699219 113.945312 148.699219 L 82.230469 148.699219 C 81.09375 148.699219 80.167969 149.621094 80.167969 150.761719 C 80.167969 151.902344 81.09375 152.824219 82.230469 152.824219 Z M 113.945312 152.824219 " fill-opacity="1" fill-rule="nonzero"/><path fill="#000000" d="M 68.765625 181.632812 C 68.765625 182.773438 69.691406 183.695312 70.828125 183.695312 L 118.6875 183.695312 C 119.828125 183.695312 120.75 182.773438 120.75 181.632812 C 120.75 180.492188 119.828125 179.570312 118.6875 179.570312 L 70.828125 179.570312 C 69.691406 179.570312 68.765625 180.492188 68.765625 181.632812 Z M 68.765625 181.632812 " fill-opacity="1" fill-rule="nonzero"/></svg>