<svg xmlns="http://www.w3.org/2000/svg" xmlns:xlink="http://www.w3.org/1999/xlink" width="500" zoomAndPan="magnify" viewBox="0 0 375 374.999991" height="500" preserveAspectRatio="xMidYMid meet" version="1.0"><defs><clipPath id="9fa64b5639"><path d="M 56.25 77.25 L 318.75 77.25 L 318.75 297.75 L 56.25 297.75 Z M 56.25 77.25 " clip-rule="nonzero"/></clipPath></defs><path fill="#000000" d="M 187.5 0 C 84.050781 0 0 84.050781 0 187.5 C 0 290.949219 84.050781 375 187.5 375 C 290.949219 375 375 290.949219 375 187.5 C 375 84.050781 290.949219 0 187.5 0 Z M 187.5 8.152344 C 286.65625 8.152344 366.847656 88.34375 366.847656 187.5 C 366.847656 286.65625 286.65625 366.847656 187.5 366.847656 C 88.34375 366.847656 8.152344 286.65625 8.152344 187.5 C 8.152344 88.34375 88.34375 8.152344 187.5 8.152344 Z M 187.5 8.152344 " fill-opacity="1" fill-rule="nonzero"/><g clip-path="url(#9fa64b5639)"><path fill="#000000" d="M 207.46875 291.957031 L 207.46875 238.304688 L 161.246094 238.304688 L 161.246094 291.949219 C 161.246094 292.332031 161.210938 292.710938 161.136719 293.085938 C 161.0625 293.460938 160.953125 293.824219 160.804688 294.175781 C 160.660156 294.527344 160.480469 294.863281 160.269531 295.179688 C 160.058594 295.5 159.816406 295.792969 159.546875 296.0625 C 159.277344 296.332031 158.984375 296.574219 158.667969 296.789062 C 158.351562 297 158.019531 297.179688 157.664062 297.328125 C 157.3125 297.472656 156.949219 297.585938 156.578125 297.660156 C 156.203125 297.734375 155.824219 297.773438 155.441406 297.777344 L 94.378906 297.777344 C 94 297.777344 93.621094 297.738281 93.246094 297.664062 C 92.871094 297.589844 92.507812 297.476562 92.152344 297.332031 C 91.800781 297.183594 91.464844 297.007812 91.148438 296.792969 C 90.832031 296.582031 90.535156 296.339844 90.265625 296.070312 C 89.996094 295.800781 89.753906 295.507812 89.542969 295.1875 C 89.332031 294.871094 89.152344 294.535156 89.003906 294.183594 C 88.859375 293.828125 88.746094 293.464844 88.671875 293.089844 C 88.597656 292.714844 88.5625 292.339844 88.558594 291.957031 L 88.558594 186.359375 C 88.558594 186.078125 88.585938 185.796875 88.644531 185.519531 C 88.699219 185.242188 88.78125 184.972656 88.886719 184.710938 C 88.996094 184.453125 89.128906 184.203125 89.285156 183.96875 C 89.441406 183.734375 89.621094 183.515625 89.820312 183.316406 C 90.019531 183.117188 90.238281 182.9375 90.472656 182.78125 C 90.707031 182.625 90.953125 182.492188 91.214844 182.382812 C 91.476562 182.277344 91.746094 182.195312 92.023438 182.140625 C 92.300781 182.085938 92.578125 182.058594 92.863281 182.058594 C 93.144531 182.058594 93.425781 182.085938 93.703125 182.140625 C 93.980469 182.195312 94.246094 182.277344 94.507812 182.382812 C 94.769531 182.492188 95.019531 182.625 95.253906 182.78125 C 95.488281 182.9375 95.703125 183.117188 95.90625 183.316406 C 96.105469 183.515625 96.28125 183.734375 96.441406 183.96875 C 96.597656 184.203125 96.730469 184.453125 96.835938 184.710938 C 96.945312 184.972656 97.027344 185.242188 97.082031 185.519531 C 97.136719 185.796875 97.164062 186.078125 97.164062 186.359375 L 97.164062 289.167969 L 152.644531 289.167969 L 152.644531 235.519531 C 152.644531 235.136719 152.679688 234.757812 152.753906 234.386719 C 152.832031 234.011719 152.941406 233.648438 153.085938 233.292969 C 153.234375 232.941406 153.414062 232.605469 153.625 232.289062 C 153.835938 231.96875 154.078125 231.675781 154.347656 231.40625 C 154.621094 231.136719 154.914062 230.894531 155.230469 230.683594 C 155.546875 230.46875 155.882812 230.289062 156.238281 230.144531 C 156.589844 230 156.953125 229.886719 157.328125 229.8125 C 157.703125 229.738281 158.082031 229.699219 158.460938 229.699219 L 210.277344 229.699219 C 210.660156 229.699219 211.039062 229.738281 211.414062 229.8125 C 211.789062 229.886719 212.152344 230 212.503906 230.144531 C 212.855469 230.289062 213.191406 230.46875 213.507812 230.683594 C 213.828125 230.894531 214.121094 231.136719 214.390625 231.40625 C 214.660156 231.675781 214.902344 231.96875 215.113281 232.289062 C 215.328125 232.605469 215.507812 232.941406 215.652344 233.292969 C 215.800781 233.648438 215.910156 234.011719 215.984375 234.386719 C 216.058594 234.757812 216.097656 235.136719 216.097656 235.519531 L 216.097656 289.167969 L 271.574219 289.167969 L 271.574219 186.359375 C 271.574219 186.078125 271.601562 185.796875 271.660156 185.519531 C 271.714844 185.242188 271.796875 184.972656 271.902344 184.710938 C 272.011719 184.453125 272.144531 184.203125 272.300781 183.96875 C 272.457031 183.734375 272.636719 183.515625 272.835938 183.316406 C 273.035156 183.117188 273.253906 182.9375 273.488281 182.78125 C 273.722656 182.625 273.96875 182.492188 274.230469 182.382812 C 274.492188 182.277344 274.761719 182.195312 275.039062 182.140625 C 275.316406 182.085938 275.59375 182.058594 275.878906 182.058594 C 276.160156 182.058594 276.441406 182.085938 276.71875 182.140625 C 276.996094 182.195312 277.261719 182.277344 277.523438 182.382812 C 277.785156 182.492188 278.03125 182.625 278.269531 182.78125 C 278.503906 182.9375 278.71875 183.117188 278.921875 183.316406 C 279.121094 183.515625 279.296875 183.734375 279.453125 183.96875 C 279.613281 184.203125 279.746094 184.453125 279.851562 184.710938 C 279.960938 184.972656 280.042969 185.242188 280.097656 185.519531 C 280.152344 185.796875 280.179688 186.078125 280.179688 186.359375 L 280.179688 291.957031 C 280.179688 292.339844 280.140625 292.714844 280.066406 293.089844 C 279.992188 293.464844 279.882812 293.828125 279.734375 294.183594 C 279.589844 294.535156 279.410156 294.871094 279.199219 295.1875 C 278.984375 295.507812 278.742188 295.800781 278.472656 296.070312 C 278.203125 296.339844 277.910156 296.582031 277.59375 296.792969 C 277.273438 297.007812 276.9375 297.183594 276.585938 297.332031 C 276.234375 297.476562 275.871094 297.589844 275.496094 297.664062 C 275.121094 297.738281 274.742188 297.777344 274.359375 297.777344 L 213.292969 297.777344 C 212.910156 297.777344 212.53125 297.738281 212.15625 297.664062 C 211.78125 297.589844 211.417969 297.480469 211.0625 297.332031 C 210.710938 297.1875 210.375 297.007812 210.058594 296.796875 C 209.738281 296.582031 209.445312 296.34375 209.175781 296.070312 C 208.90625 295.800781 208.664062 295.507812 208.449219 295.191406 C 208.238281 294.871094 208.058594 294.535156 207.910156 294.183594 C 207.765625 293.832031 207.65625 293.464844 207.578125 293.09375 C 207.503906 292.71875 207.46875 292.339844 207.46875 291.957031 Z M 311.152344 190.546875 C 311.363281 190.757812 311.59375 190.945312 311.847656 191.109375 C 312.097656 191.273438 312.359375 191.40625 312.640625 191.515625 C 312.917969 191.625 313.203125 191.703125 313.5 191.75 C 313.792969 191.800781 314.089844 191.816406 314.390625 191.804688 C 314.6875 191.792969 314.984375 191.746094 315.273438 191.671875 C 315.5625 191.597656 315.839844 191.496094 316.109375 191.363281 C 316.375 191.230469 316.628906 191.070312 316.863281 190.886719 C 317.097656 190.699219 317.308594 190.492188 317.5 190.261719 C 317.695312 190.035156 317.859375 189.785156 318 189.523438 C 318.140625 189.257812 318.25 188.984375 318.332031 188.695312 C 318.417969 188.410156 318.46875 188.117188 318.488281 187.816406 C 318.511719 187.519531 318.503906 187.222656 318.460938 186.925781 C 318.421875 186.628906 318.351562 186.339844 318.25 186.058594 C 318.148438 185.777344 318.019531 185.511719 317.863281 185.253906 C 317.707031 185 317.527344 184.765625 317.320312 184.546875 C 317.117188 184.332031 316.890625 184.136719 316.644531 183.96875 L 191.101562 79.078125 C 190.578125 78.640625 189.996094 78.304688 189.355469 78.070312 C 188.710938 77.839844 188.050781 77.722656 187.371094 77.722656 C 186.6875 77.722656 186.027344 77.839844 185.382812 78.070312 C 184.742188 78.304688 184.160156 78.640625 183.636719 79.078125 L 58.09375 183.96875 C 57.878906 184.148438 57.679688 184.347656 57.503906 184.570312 C 57.324219 184.789062 57.171875 185.023438 57.039062 185.273438 C 56.910156 185.523438 56.804688 185.785156 56.722656 186.054688 C 56.644531 186.328125 56.59375 186.601562 56.566406 186.886719 C 56.542969 187.167969 56.542969 187.449219 56.574219 187.726562 C 56.605469 188.007812 56.660156 188.285156 56.746094 188.554688 C 56.832031 188.824219 56.941406 189.082031 57.074219 189.332031 C 57.210938 189.578125 57.367188 189.8125 57.550781 190.027344 C 57.730469 190.246094 57.929688 190.441406 58.152344 190.621094 C 58.371094 190.796875 58.605469 190.949219 58.855469 191.082031 C 59.105469 191.210938 59.367188 191.316406 59.640625 191.398438 C 59.910156 191.476562 60.1875 191.53125 60.46875 191.554688 C 60.75 191.582031 61.03125 191.578125 61.3125 191.546875 C 61.59375 191.519531 61.867188 191.460938 62.136719 191.375 C 62.40625 191.292969 62.664062 191.183594 62.914062 191.046875 C 63.160156 190.910156 63.394531 190.753906 63.609375 190.570312 L 187.371094 87.167969 Z M 228.5 91.777344 L 261.09375 91.777344 L 261.09375 124.371094 C 261.09375 124.652344 261.121094 124.933594 261.175781 125.210938 C 261.230469 125.484375 261.3125 125.753906 261.417969 126.015625 C 261.527344 126.277344 261.660156 126.523438 261.816406 126.761719 C 261.972656 126.996094 262.152344 127.210938 262.351562 127.410156 C 262.550781 127.613281 262.769531 127.789062 263.003906 127.945312 C 263.238281 128.105469 263.488281 128.238281 263.75 128.34375 C 264.007812 128.453125 264.277344 128.535156 264.554688 128.589844 C 264.832031 128.644531 265.113281 128.671875 265.394531 128.671875 C 265.675781 128.671875 265.957031 128.644531 266.234375 128.589844 C 266.511719 128.535156 266.78125 128.453125 267.039062 128.34375 C 267.300781 128.238281 267.550781 128.105469 267.785156 127.945312 C 268.019531 127.789062 268.238281 127.613281 268.4375 127.410156 C 268.636719 127.210938 268.816406 126.996094 268.972656 126.761719 C 269.128906 126.523438 269.261719 126.277344 269.371094 126.015625 C 269.476562 125.753906 269.558594 125.484375 269.613281 125.210938 C 269.667969 124.933594 269.695312 124.652344 269.695312 124.371094 L 269.695312 88.996094 C 269.695312 88.613281 269.660156 88.234375 269.585938 87.859375 C 269.507812 87.484375 269.398438 87.121094 269.253906 86.769531 C 269.105469 86.414062 268.925781 86.082031 268.714844 85.761719 C 268.503906 85.445312 268.261719 85.152344 267.992188 84.878906 C 267.71875 84.609375 267.425781 84.371094 267.109375 84.15625 C 266.792969 83.945312 266.457031 83.765625 266.101562 83.617188 C 265.75 83.472656 265.386719 83.363281 265.011719 83.289062 C 264.636719 83.210938 264.257812 83.175781 263.875 83.175781 L 228.5 83.175781 C 228.21875 83.175781 227.9375 83.203125 227.660156 83.257812 C 227.386719 83.3125 227.117188 83.394531 226.855469 83.5 C 226.59375 83.609375 226.34375 83.742188 226.109375 83.898438 C 225.875 84.054688 225.660156 84.234375 225.457031 84.433594 C 225.257812 84.632812 225.082031 84.851562 224.921875 85.085938 C 224.765625 85.320312 224.632812 85.570312 224.527344 85.832031 C 224.417969 86.089844 224.335938 86.359375 224.28125 86.636719 C 224.226562 86.914062 224.199219 87.195312 224.199219 87.476562 C 224.199219 87.757812 224.226562 88.039062 224.28125 88.316406 C 224.335938 88.59375 224.417969 88.863281 224.527344 89.125 C 224.632812 89.382812 224.765625 89.632812 224.921875 89.867188 C 225.082031 90.101562 225.257812 90.320312 225.457031 90.519531 C 225.660156 90.71875 225.875 90.898438 226.109375 91.054688 C 226.34375 91.210938 226.59375 91.34375 226.855469 91.453125 C 227.117188 91.558594 227.386719 91.640625 227.660156 91.695312 C 227.9375 91.75 228.21875 91.777344 228.5 91.777344 Z M 228.5 91.777344 " fill-opacity="1" fill-rule="nonzero"/></g></svg>