<svg xmlns="http://www.w3.org/2000/svg" xmlns:xlink="http://www.w3.org/1999/xlink" width="500" zoomAndPan="magnify" viewBox="0 0 375 374.999991" height="500" preserveAspectRatio="xMidYMid meet" version="1.0"><defs><clipPath id="dc4eacd911"><path d="M 57 299 L 121 299 L 121 308.929688 L 57 308.929688 Z M 57 299 " clip-rule="nonzero"/></clipPath><clipPath id="38d155d699"><path d="M 255 299 L 318.75 299 L 318.75 308.929688 L 255 308.929688 Z M 255 299 " clip-rule="nonzero"/></clipPath><clipPath id="9300135eda"><path d="M 56.25 96 L 77 96 L 77 117 L 56.25 117 Z M 56.25 96 " clip-rule="nonzero"/></clipPath><clipPath id="0a659cacc6"><path d="M 138 65.929688 L 148 65.929688 L 148 89 L 138 89 Z M 138 65.929688 " clip-rule="nonzero"/></clipPath></defs><path fill="#000000" d="M 187.5 0 C 84.050781 0 0 84.050781 0 187.5 C 0 290.949219 84.050781 375 187.5 375 C 290.949219 375 375 290.949219 375 187.5 C 375 84.050781 290.949219 0 187.5 0 Z M 187.5 8.152344 C 286.65625 8.152344 366.847656 88.34375 366.847656 187.5 C 366.847656 286.65625 286.65625 366.847656 187.5 366.847656 C 88.34375 366.847656 8.152344 286.65625 8.152344 187.5 C 8.152344 88.34375 88.34375 8.152344 187.5 8.152344 Z M 187.5 8.152344 " fill-opacity="1" fill-rule="nonzero"/><path fill="#000000" d="M 296.21875 232.410156 L 241.667969 232.410156 L 241.667969 223.414062 L 296.21875 223.414062 C 301.179688 223.414062 305.222656 219.375 305.222656 214.414062 L 305.222656 164.914062 C 305.222656 159.953125 301.179688 155.917969 296.21875 155.917969 L 80.101562 155.917969 C 75.140625 155.917969 71.097656 159.953125 71.097656 164.914062 L 71.097656 214.414062 C 71.097656 219.375 75.140625 223.414062 80.101562 223.414062 L 124.605469 223.414062 L 124.605469 232.410156 L 80.101562 232.410156 C 70.171875 232.410156 62.09375 224.339844 62.09375 214.414062 L 62.09375 164.914062 C 62.09375 154.988281 70.171875 146.917969 80.101562 146.917969 L 296.21875 146.917969 C 306.148438 146.917969 314.226562 154.988281 314.226562 164.914062 L 314.226562 214.414062 C 314.226562 224.339844 306.148438 232.410156 296.21875 232.410156 Z M 296.21875 232.410156 " fill-opacity="1" fill-rule="nonzero"/><path fill="#000000" d="M 246.691406 245.90625 L 237.6875 245.90625 C 237.6875 189.039062 221.925781 153.621094 221.765625 153.273438 L 229.96875 149.554688 C 230.652344 151.0625 246.691406 187.121094 246.691406 245.914062 Z M 246.691406 245.90625 " fill-opacity="1" fill-rule="nonzero"/><path fill="#000000" d="M 138.632812 263.90625 L 206.167969 263.90625 L 206.167969 272.90625 L 138.632812 272.90625 Z M 138.632812 263.90625 " fill-opacity="1" fill-rule="nonzero"/><path fill="#000000" d="M 246.691406 272.90625 L 201.667969 272.90625 L 201.667969 263.90625 L 246.691406 263.90625 C 250.296875 263.90625 254.261719 258.371094 255.382812 250.40625 L 156.402344 250.40625 C 155.011719 263.332031 147.707031 272.90625 138.632812 272.90625 C 128.535156 272.90625 120.625 261.046875 120.625 245.90625 C 120.625 189.039062 104.863281 153.621094 104.703125 153.273438 L 112.90625 149.554688 C 113.589844 151.0625 129.628906 187.121094 129.628906 245.914062 C 129.628906 256.214844 134.382812 263.910156 138.632812 263.910156 C 142.886719 263.910156 147.636719 256.214844 147.636719 245.914062 L 147.636719 241.410156 L 264.699219 241.410156 L 264.699219 245.914062 C 264.699219 261.050781 256.792969 272.910156 246.691406 272.910156 Z M 246.691406 272.90625 " fill-opacity="1" fill-rule="nonzero"/><path fill="#000000" d="M 237.203125 215.949219 L 210.667969 189.289062 L 186.886719 213.132812 L 180.515625 206.777344 L 210.671875 176.535156 L 243.589844 209.601562 Z M 237.203125 215.949219 " fill-opacity="1" fill-rule="nonzero"/><path fill="#000000" d="M 80.101562 164.910156 L 102.617188 164.910156 L 102.617188 173.910156 L 80.101562 173.910156 Z M 80.101562 164.910156 " fill-opacity="1" fill-rule="nonzero"/><path fill="#000000" d="M 80.101562 182.914062 L 102.617188 182.914062 L 102.617188 191.914062 L 80.101562 191.914062 Z M 80.101562 182.914062 " fill-opacity="1" fill-rule="nonzero"/><path fill="#000000" d="M 309.722656 191.914062 L 260.195312 191.914062 C 255.230469 191.914062 251.191406 187.875 251.191406 182.914062 L 251.191406 151.414062 L 260.195312 151.414062 L 260.195312 182.914062 L 309.722656 182.914062 Z M 309.722656 191.914062 " fill-opacity="1" fill-rule="nonzero"/><path fill="#000000" d="M 278.210938 164.910156 L 269.199219 164.910156 L 269.199219 173.914062 L 278.210938 173.914062 Z M 278.210938 164.910156 " fill-opacity="1" fill-rule="nonzero"/><path fill="#000000" d="M 296.21875 164.910156 L 287.214844 164.910156 L 287.214844 173.914062 L 296.21875 173.914062 Z M 296.21875 164.910156 " fill-opacity="1" fill-rule="nonzero"/><path fill="#000000" d="M 111.621094 304.40625 L 102.617188 304.40625 L 102.617188 290.902344 L 93.613281 290.902344 L 93.613281 227.90625 L 102.617188 227.90625 L 102.617188 281.898438 C 107.578125 281.898438 111.621094 285.9375 111.621094 290.898438 Z M 111.621094 304.40625 " fill-opacity="1" fill-rule="nonzero"/><path fill="#000000" d="M 75.597656 304.40625 L 66.59375 304.40625 L 66.59375 290.902344 C 66.59375 285.945312 70.632812 281.90625 75.597656 281.90625 L 75.597656 227.910156 L 84.601562 227.910156 L 84.601562 290.910156 L 75.597656 290.910156 L 75.597656 304.410156 Z M 75.597656 304.40625 " fill-opacity="1" fill-rule="nonzero"/><g clip-path="url(#dc4eacd911)"><path fill="#000000" d="M 57.589844 299.90625 L 120.625 299.90625 L 120.625 308.90625 L 57.589844 308.90625 Z M 57.589844 299.90625 " fill-opacity="1" fill-rule="nonzero"/></g><path fill="#000000" d="M 309.722656 304.40625 L 300.71875 304.40625 L 300.71875 290.902344 L 291.714844 290.902344 L 291.714844 227.90625 L 300.71875 227.90625 L 300.71875 281.898438 C 305.679688 281.898438 309.722656 285.9375 309.722656 290.898438 Z M 309.722656 304.40625 " fill-opacity="1" fill-rule="nonzero"/><path fill="#000000" d="M 273.703125 304.40625 L 264.699219 304.40625 L 264.699219 290.902344 C 264.699219 285.945312 268.742188 281.90625 273.703125 281.90625 L 273.703125 227.910156 L 282.707031 227.910156 L 282.707031 290.910156 L 273.703125 290.910156 L 273.703125 304.410156 Z M 273.703125 304.40625 " fill-opacity="1" fill-rule="nonzero"/><g clip-path="url(#38d155d699)"><path fill="#000000" d="M 255.695312 299.90625 L 318.730469 299.90625 L 318.730469 308.90625 L 255.695312 308.90625 Z M 255.695312 299.90625 " fill-opacity="1" fill-rule="nonzero"/></g><g clip-path="url(#9300135eda)"><path fill="#000000" d="M 56.238281 102.425781 L 62.605469 96.0625 L 76.921875 110.371094 L 70.554688 116.734375 Z M 56.238281 102.425781 " fill-opacity="1" fill-rule="nonzero"/></g><path fill="#000000" d="M 91.953125 73.957031 L 100.328125 70.632812 L 108.140625 90.300781 L 99.769531 93.625 Z M 91.953125 73.957031 " fill-opacity="1" fill-rule="nonzero"/><g clip-path="url(#0a659cacc6)"><path fill="#000000" d="M 138.632812 65.917969 L 147.636719 65.917969 L 147.636719 88.417969 L 138.632812 88.417969 Z M 138.632812 65.917969 " fill-opacity="1" fill-rule="nonzero"/></g><path fill="#000000" d="M 196.515625 229.121094 L 161.148438 193.777344 L 127.550781 227.351562 L 121.183594 220.988281 L 161.148438 181.046875 L 202.882812 222.757812 Z M 196.515625 229.121094 " fill-opacity="1" fill-rule="nonzero"/><path fill="#000000" d="M 94.519531 152.171875 L 89.210938 121.230469 C 88.859375 118.464844 89.660156 115.886719 91.363281 113.953125 C 93.074219 112.019531 95.53125 110.910156 98.113281 110.910156 L 229.207031 110.910156 C 233.738281 110.910156 237.578125 114.300781 238.140625 118.796875 L 242.773438 150.761719 L 233.867188 152.054688 L 229.222656 120 L 98.113281 119.910156 L 103.394531 150.648438 L 94.519531 152.167969 Z M 94.519531 152.171875 " fill-opacity="1" fill-rule="nonzero"/></svg>