<svg xmlns="http://www.w3.org/2000/svg" xmlns:xlink="http://www.w3.org/1999/xlink" width="500" zoomAndPan="magnify" viewBox="0 0 375 374.999991" height="500" preserveAspectRatio="xMidYMid meet" version="1.0"><defs><clipPath id="c4cb7b3784"><path d="M 92 129 L 311.429688 129 L 311.429688 305.585938 L 92 305.585938 Z M 92 129 " clip-rule="nonzero"/></clipPath></defs><rect x="-37.5" width="450" fill="#ffffff" y="-37.499999" height="449.999989" fill-opacity="1"/><rect x="-37.5" width="450" fill="#ffffff" y="-37.499999" height="449.999989" fill-opacity="1"/><path fill="#000000" d="M 187.5 0 C 84.050781 0 0 84.050781 0 187.5 C 0 290.949219 84.050781 375 187.5 375 C 290.949219 375 375 290.949219 375 187.5 C 375 84.050781 290.949219 0 187.5 0 Z M 187.5 8.152344 C 286.65625 8.152344 366.847656 88.34375 366.847656 187.5 C 366.847656 286.65625 286.65625 366.847656 187.5 366.847656 C 88.34375 366.847656 8.152344 286.65625 8.152344 187.5 C 8.152344 88.34375 88.34375 8.152344 187.5 8.152344 Z M 187.5 8.152344 " fill-opacity="1" fill-rule="nonzero"/><path fill="#000000" d="M 290.394531 130.875 L 277.320312 82.519531 C 275.078125 74.242188 266.476562 69.3125 258.125 71.53125 L 76.253906 119.8125 C 72.179688 120.894531 68.78125 123.480469 66.691406 127.097656 C 64.617188 130.6875 64.070312 134.867188 65.15625 138.875 L 91.785156 237.335938 C 92.257812 239.078125 93.835938 240.226562 95.566406 240.226562 C 95.902344 240.226562 96.242188 240.179688 96.585938 240.089844 C 98.675781 239.527344 99.914062 237.378906 99.347656 235.296875 L 72.71875 136.832031 C 72.183594 134.851562 72.453125 132.78125 73.476562 131.003906 C 74.519531 129.203125 76.222656 127.910156 78.269531 127.367188 L 260.136719 79.085938 C 264.324219 77.980469 268.640625 80.429688 269.757812 84.558594 L 282.835938 132.910156 C 283.398438 134.996094 285.542969 136.230469 287.636719 135.667969 C 289.722656 135.105469 290.957031 132.957031 290.394531 130.875 Z M 290.394531 130.875 " fill-opacity="1" fill-rule="nonzero"/><g clip-path="url(#c4cb7b3784)"><path fill="#000000" d="M 295.703125 129.644531 L 107.699219 129.644531 C 99.0625 129.644531 92.03125 136.671875 92.03125 145.308594 L 92.03125 289.921875 C 92.03125 298.5625 99.0625 305.589844 107.699219 305.589844 L 295.703125 305.589844 C 304.34375 305.589844 311.371094 298.5625 311.371094 289.921875 L 311.371094 145.3125 C 311.371094 136.671875 304.34375 129.644531 295.703125 129.644531 Z M 303.539062 289.921875 C 303.539062 294.25 300.023438 297.769531 295.703125 297.769531 L 107.699219 297.769531 C 103.382812 297.769531 99.867188 294.25 99.867188 289.921875 L 99.867188 145.3125 C 99.867188 140.984375 103.382812 137.464844 107.699219 137.464844 L 295.703125 137.464844 C 300.023438 137.464844 303.539062 140.984375 303.539062 145.308594 Z M 303.539062 289.921875 " fill-opacity="1" fill-rule="nonzero"/></g><path fill="#000000" d="M 182.117188 207.839844 L 115.535156 207.839844 C 113.371094 207.839844 111.617188 209.59375 111.617188 211.75 L 111.617188 250.847656 C 111.617188 253.007812 113.371094 254.761719 115.535156 254.761719 L 182.117188 254.761719 C 184.277344 254.761719 186.035156 253.007812 186.035156 250.847656 L 186.035156 211.75 C 186.035156 209.59375 184.277344 207.839844 182.117188 207.839844 Z M 178.203125 246.941406 L 119.449219 246.941406 L 119.449219 215.664062 L 178.203125 215.664062 Z M 178.203125 246.941406 " fill-opacity="1" fill-rule="nonzero"/><path fill="#000000" d="M 193.867188 219.574219 L 291.785156 219.574219 L 291.785156 211.75 L 193.867188 211.75 Z M 193.867188 219.574219 " fill-opacity="1" fill-rule="nonzero"/><path fill="#000000" d="M 193.867188 250.847656 L 291.785156 250.847656 L 291.785156 243.03125 L 193.867188 243.03125 Z M 193.867188 250.847656 " fill-opacity="1" fill-rule="nonzero"/><path fill="#000000" d="M 193.867188 235.210938 L 291.785156 235.210938 L 291.785156 227.390625 L 193.867188 227.390625 Z M 193.867188 235.210938 " fill-opacity="1" fill-rule="nonzero"/><path fill="#000000" d="M 115.53125 266.492188 L 291.785156 266.492188 L 291.785156 258.671875 L 115.53125 258.671875 Z M 115.53125 266.492188 " fill-opacity="1" fill-rule="nonzero"/><path fill="#000000" d="M 115.53125 282.128906 L 291.785156 282.128906 L 291.785156 274.308594 L 115.53125 274.308594 Z M 115.53125 282.128906 " fill-opacity="1" fill-rule="nonzero"/><path fill="#000000" d="M 141.40625 158.003906 C 141.339844 157.550781 141.1875 157.148438 140.945312 156.8125 C 140.703125 156.476562 140.347656 156.207031 139.871094 156.003906 C 139.398438 155.804688 138.746094 155.703125 137.929688 155.703125 C 137.1875 155.703125 136.601562 155.804688 136.175781 156.003906 C 135.746094 156.207031 135.425781 156.476562 135.207031 156.8125 C 134.988281 157.148438 134.851562 157.550781 134.785156 158.003906 C 134.722656 158.464844 134.6875 158.949219 134.6875 159.46875 L 134.6875 179.484375 L 134.109375 179.484375 L 126.421875 158.691406 C 126.214844 158.128906 125.929688 157.628906 125.578125 157.195312 C 125.253906 156.828125 124.839844 156.488281 124.332031 156.171875 C 123.824219 155.855469 123.167969 155.699219 122.363281 155.699219 L 119.171875 155.699219 C 118.269531 155.699219 117.574219 155.855469 117.082031 156.171875 C 116.589844 156.488281 116.234375 156.90625 116.007812 157.429688 C 115.785156 157.949219 115.648438 158.542969 115.609375 159.214844 C 115.570312 159.878906 115.550781 160.558594 115.550781 161.25 L 115.550781 185.707031 C 115.550781 186.222656 115.582031 186.707031 115.644531 187.164062 C 115.710938 187.621094 115.863281 188.023438 116.105469 188.359375 C 116.347656 188.695312 116.707031 188.96875 117.191406 189.167969 C 117.675781 189.367188 118.335938 189.46875 119.171875 189.46875 C 119.914062 189.46875 120.5 189.367188 120.925781 189.167969 C 121.351562 188.96875 121.675781 188.695312 121.894531 188.359375 C 122.113281 188.023438 122.25 187.621094 122.316406 187.164062 C 122.378906 186.707031 122.410156 186.222656 122.410156 185.707031 L 122.410156 165.6875 L 122.992188 165.6875 L 130.289062 185.417969 C 130.402344 185.742188 130.558594 186.136719 130.761719 186.597656 C 130.960938 187.070312 131.234375 187.515625 131.574219 187.9375 C 131.910156 188.367188 132.332031 188.730469 132.839844 189.027344 C 133.34375 189.324219 133.980469 189.472656 134.734375 189.472656 L 137.925781 189.472656 C 138.8125 189.472656 139.5 189.316406 139.992188 189 C 140.484375 188.6875 140.835938 188.269531 141.054688 187.75 C 141.269531 187.226562 141.398438 186.632812 141.4375 185.976562 C 141.476562 185.316406 141.5 184.628906 141.5 183.921875 L 141.5 159.46875 C 141.503906 158.949219 141.46875 158.464844 141.40625 158.003906 Z M 141.40625 158.003906 " fill-opacity="1" fill-rule="nonzero"/><path fill="#000000" d="M 167.359375 172.355469 C 167.292969 171.691406 167.152344 171.03125 166.925781 170.378906 C 166.695312 169.730469 166.359375 169.097656 165.90625 168.484375 C 165.457031 167.875 164.84375 167.335938 164.070312 166.871094 C 163.300781 166.40625 162.335938 166.023438 161.183594 165.738281 C 160.03125 165.445312 158.644531 165.300781 157.015625 165.300781 C 156.53125 165.300781 155.957031 165.328125 155.285156 165.375 C 154.617188 165.425781 153.914062 165.542969 153.171875 165.734375 C 152.429688 165.929688 151.699219 166.222656 150.972656 166.617188 C 150.25 167.007812 149.597656 167.5625 149.015625 168.269531 C 148.4375 168.976562 147.964844 169.859375 147.601562 170.921875 C 147.242188 171.980469 147.058594 173.277344 147.058594 174.804688 L 147.058594 180.457031 C 147.058594 182.109375 147.332031 183.507812 147.882812 184.648438 C 148.429688 185.792969 149.164062 186.71875 150.09375 187.425781 C 151.019531 188.132812 152.085938 188.644531 153.292969 188.96875 C 154.503906 189.289062 155.773438 189.457031 157.109375 189.472656 C 158.128906 189.472656 159.21875 189.386719 160.386719 189.207031 C 161.554688 189.03125 162.636719 188.734375 163.636719 188.316406 C 164.636719 187.898438 165.46875 187.339844 166.125 186.640625 C 166.785156 185.9375 167.117188 185.070312 167.117188 184.023438 C 167.117188 183.523438 167.027344 183.121094 166.851562 182.808594 C 166.675781 182.492188 166.4375 182.246094 166.152344 182.070312 C 165.859375 181.894531 165.523438 181.769531 165.144531 181.707031 C 164.765625 181.644531 164.378906 181.609375 163.972656 181.609375 C 163.136719 181.609375 162.476562 181.6875 162.003906 181.839844 C 161.527344 181.992188 161.160156 182.179688 160.894531 182.40625 C 160.628906 182.632812 160.417969 182.871094 160.253906 183.128906 C 160.09375 183.386719 159.914062 183.628906 159.714844 183.851562 C 159.507812 184.078125 159.238281 184.265625 158.890625 184.417969 C 158.542969 184.570312 158.050781 184.648438 157.40625 184.648438 C 156.839844 184.648438 156.363281 184.535156 155.980469 184.308594 C 155.589844 184.085938 155.277344 183.796875 155.046875 183.441406 C 154.8125 183.085938 154.648438 182.699219 154.550781 182.285156 C 154.453125 181.863281 154.402344 181.460938 154.402344 181.078125 L 154.402344 178.761719 L 164.023438 178.761719 C 164.875 178.761719 165.539062 178.648438 166.003906 178.421875 C 166.46875 178.199219 166.816406 177.929688 167.03125 177.617188 C 167.25 177.304688 167.375 176.972656 167.40625 176.628906 C 167.4375 176.28125 167.453125 175.976562 167.453125 175.722656 L 167.457031 175.722656 L 167.457031 174.226562 C 167.460938 173.644531 167.425781 173.023438 167.359375 172.355469 Z M 154.402344 175.140625 L 154.402344 173.453125 C 154.402344 173.183594 154.425781 172.867188 154.476562 172.511719 C 154.523438 172.160156 154.644531 171.824219 154.839844 171.511719 C 155.035156 171.199219 155.320312 170.9375 155.699219 170.730469 C 156.078125 170.519531 156.597656 170.414062 157.257812 170.414062 C 158.050781 170.414062 158.65625 170.519531 159.082031 170.730469 C 159.507812 170.941406 159.820312 171.246094 160.023438 171.644531 C 160.226562 172.046875 160.347656 172.542969 160.386719 173.132812 C 160.425781 173.714844 160.445312 174.386719 160.445312 175.144531 L 154.402344 175.144531 Z M 154.402344 175.140625 " fill-opacity="1" fill-rule="nonzero"/><path fill="#000000" d="M 202.464844 167.640625 C 202.355469 167.207031 202.167969 166.824219 201.910156 166.484375 C 201.652344 166.148438 201.324219 165.875 200.917969 165.664062 C 200.515625 165.453125 200.027344 165.351562 199.445312 165.351562 C 198.882812 165.351562 198.398438 165.449219 197.996094 165.652344 C 197.59375 165.855469 197.246094 166.117188 196.957031 166.449219 C 196.671875 166.777344 196.421875 167.152344 196.21875 167.570312 C 196.015625 167.988281 195.855469 168.425781 195.726562 168.871094 L 193.015625 178.328125 L 192.632812 178.328125 L 190.070312 171.527344 C 189.601562 170.257812 189.066406 169.371094 188.464844 168.886719 C 187.859375 168.394531 187.171875 168.148438 186.398438 168.148438 C 185.625 168.148438 184.902344 168.394531 184.234375 168.886719 C 183.566406 169.375 183.03125 170.257812 182.625 171.527344 L 180.40625 178.328125 L 180.019531 178.328125 L 176.972656 168.871094 C 176.828125 168.425781 176.652344 167.988281 176.441406 167.570312 C 176.230469 167.152344 175.984375 166.78125 175.691406 166.449219 C 175.402344 166.117188 175.078125 165.859375 174.714844 165.652344 C 174.351562 165.453125 173.945312 165.351562 173.492188 165.351562 C 172.847656 165.351562 172.3125 165.449219 171.878906 165.640625 C 171.441406 165.832031 171.089844 166.09375 170.824219 166.421875 C 170.558594 166.753906 170.367188 167.136719 170.242188 167.570312 C 170.125 168.003906 170.0625 168.457031 170.0625 168.917969 C 170.0625 169.355469 170.125 169.796875 170.242188 170.234375 C 170.363281 170.675781 170.5 171.09375 170.640625 171.480469 L 176.058594 185.710938 C 176.414062 186.65625 176.75 187.386719 177.070312 187.890625 C 177.394531 188.398438 177.710938 188.765625 178.027344 189 C 178.339844 189.234375 178.652344 189.371094 178.96875 189.414062 C 179.28125 189.449219 179.613281 189.46875 179.96875 189.46875 C 180.292969 189.46875 180.601562 189.453125 180.890625 189.414062 C 181.179688 189.367188 181.464844 189.234375 181.75 189 C 182.03125 188.765625 182.320312 188.398438 182.617188 187.890625 C 182.914062 187.386719 183.238281 186.65625 183.597656 185.710938 L 186.207031 177.027344 L 186.59375 177.027344 L 189.101562 185.710938 C 189.460938 186.65625 189.796875 187.386719 190.121094 187.890625 C 190.441406 188.398438 190.761719 188.765625 191.074219 189 C 191.386719 189.234375 191.703125 189.371094 192.015625 189.414062 C 192.332031 189.449219 192.664062 189.46875 193.019531 189.46875 C 193.339844 189.46875 193.648438 189.453125 193.9375 189.414062 C 194.226562 189.367188 194.519531 189.234375 194.808594 189 C 195.097656 188.765625 195.390625 188.398438 195.6875 187.890625 C 195.988281 187.386719 196.324219 186.65625 196.691406 185.710938 L 202.058594 171.480469 C 202.199219 171.058594 202.335938 170.640625 202.453125 170.234375 C 202.574219 169.824219 202.636719 169.402344 202.636719 168.96875 C 202.636719 168.519531 202.578125 168.078125 202.464844 167.640625 Z M 202.464844 167.640625 " fill-opacity="1" fill-rule="nonzero"/><path fill="#000000" d="M 222.773438 179.667969 C 222.34375 178.882812 221.792969 178.199219 221.117188 177.601562 C 220.441406 177.007812 219.691406 176.492188 218.871094 176.046875 C 218.050781 175.601562 217.242188 175.191406 216.457031 174.804688 C 215.9375 174.5625 215.441406 174.324219 214.96875 174.082031 C 214.492188 173.839844 214.074219 173.59375 213.710938 173.34375 C 213.351562 173.09375 213.0625 172.835938 212.855469 172.5625 C 212.648438 172.289062 212.539062 171.992188 212.539062 171.667969 C 212.539062 171.316406 212.609375 171.027344 212.726562 170.800781 C 212.84375 170.578125 213.003906 170.394531 213.207031 170.261719 C 213.410156 170.125 213.636719 170.03125 213.886719 169.972656 C 214.136719 169.914062 214.398438 169.886719 214.667969 169.886719 C 215.328125 169.886719 215.890625 170.050781 216.347656 170.367188 C 216.808594 170.691406 217.050781 171.160156 217.085938 171.769531 C 217.085938 171.992188 217.144531 172.226562 217.265625 172.46875 C 217.390625 172.710938 217.5625 172.925781 217.789062 173.117188 C 218.015625 173.3125 218.285156 173.472656 218.597656 173.601562 C 218.910156 173.734375 219.261719 173.792969 219.648438 173.792969 C 220.097656 173.78125 220.53125 173.734375 220.953125 173.664062 C 221.371094 173.589844 221.746094 173.464844 222.078125 173.28125 C 222.40625 173.09375 222.671875 172.84375 222.871094 172.53125 C 223.074219 172.21875 223.175781 171.820312 223.175781 171.335938 C 223.175781 171.046875 223.15625 170.695312 223.117188 170.277344 C 223.078125 169.859375 222.96875 169.421875 222.800781 168.960938 C 222.632812 168.503906 222.375 168.050781 222.027344 167.601562 C 221.679688 167.148438 221.207031 166.742188 220.601562 166.378906 C 219.996094 166.019531 219.238281 165.722656 218.328125 165.5 C 217.417969 165.277344 216.3125 165.164062 215.007812 165.164062 L 214.621094 165.164062 C 213.171875 165.191406 211.878906 165.324219 210.746094 165.550781 C 209.609375 165.773438 208.644531 166.144531 207.855469 166.667969 C 207.066406 167.191406 206.464844 167.875 206.058594 168.722656 C 205.644531 169.5625 205.4375 170.613281 205.4375 171.867188 C 205.4375 172.71875 205.625 173.476562 205.996094 174.144531 C 206.367188 174.816406 206.847656 175.414062 207.445312 175.945312 C 208.042969 176.472656 208.703125 176.957031 209.4375 177.390625 C 210.171875 177.824219 210.902344 178.234375 211.625 178.621094 C 212.207031 178.941406 212.773438 179.257812 213.332031 179.570312 C 213.886719 179.886719 214.378906 180.210938 214.816406 180.550781 C 215.253906 180.890625 215.597656 181.253906 215.867188 181.648438 C 216.132812 182.042969 216.265625 182.464844 216.265625 182.914062 C 216.265625 183.441406 216.066406 183.871094 215.671875 184.203125 C 215.28125 184.53125 214.765625 184.699219 214.140625 184.699219 C 213.835938 184.699219 213.519531 184.679688 213.195312 184.640625 C 212.875 184.601562 212.582031 184.515625 212.316406 184.398438 C 212.050781 184.277344 211.832031 184.117188 211.664062 183.925781 C 211.492188 183.734375 211.398438 183.476562 211.386719 183.152344 C 211.351562 182.1875 211.078125 181.488281 210.5625 181.058594 C 210.046875 180.621094 209.386719 180.402344 208.582031 180.402344 C 207.46875 180.402344 206.644531 180.628906 206.101562 181.078125 C 205.566406 181.53125 205.296875 182.238281 205.296875 183.203125 C 205.296875 183.605469 205.339844 184.042969 205.4375 184.515625 C 205.535156 184.992188 205.703125 185.472656 205.945312 185.949219 C 206.1875 186.433594 206.523438 186.898438 206.949219 187.339844 C 207.378906 187.78125 207.921875 188.171875 208.582031 188.519531 C 209.238281 188.867188 210.03125 189.144531 210.949219 189.355469 C 211.863281 189.5625 212.945312 189.667969 214.183594 189.667969 C 214.816406 189.667969 215.480469 189.621094 216.191406 189.53125 C 216.898438 189.445312 217.59375 189.296875 218.28125 189.089844 C 218.964844 188.878906 219.617188 188.597656 220.234375 188.242188 C 220.855469 187.886719 221.402344 187.441406 221.867188 186.902344 C 222.335938 186.363281 222.707031 185.722656 222.988281 184.984375 C 223.277344 184.246094 223.414062 183.390625 223.414062 182.425781 C 223.414062 181.367188 223.199219 180.445312 222.773438 179.667969 Z M 222.773438 179.667969 " fill-opacity="1" fill-rule="nonzero"/></svg>