<svg xmlns="http://www.w3.org/2000/svg" xmlns:xlink="http://www.w3.org/1999/xlink" width="500" zoomAndPan="magnify" viewBox="0 0 375 374.999991" height="500" preserveAspectRatio="xMidYMid meet" version="1.0"><defs><clipPath id="c069f82491"><path d="M 56.347656 152.78125 L 318.652344 152.78125 L 318.652344 302.578125 L 56.347656 302.578125 Z M 56.347656 152.78125 " clip-rule="nonzero"/></clipPath><clipPath id="f10f40f9b7"><path d="M 153 72.328125 L 222 72.328125 L 222 140 L 153 140 Z M 153 72.328125 " clip-rule="nonzero"/></clipPath></defs><path fill="#000000" d="M 187.5 0 C 84.050781 0 0 84.050781 0 187.5 C 0 290.949219 84.050781 375 187.5 375 C 290.949219 375 375 290.949219 375 187.5 C 375 84.050781 290.949219 0 187.5 0 Z M 187.5 8.152344 C 286.65625 8.152344 366.847656 88.34375 366.847656 187.5 C 366.847656 286.65625 286.65625 366.847656 187.5 366.847656 C 88.34375 366.847656 8.152344 286.65625 8.152344 187.5 C 8.152344 88.34375 88.34375 8.152344 187.5 8.152344 Z M 187.5 8.152344 " fill-opacity="1" fill-rule="nonzero"/><g clip-path="url(#c069f82491)"><path fill="#000000" d="M 140.449219 193.746094 C 140.375 194.691406 140.335938 195.644531 140.335938 196.609375 L 140.335938 259.894531 C 140.335938 267.378906 146.425781 273.46875 153.914062 273.46875 C 161.398438 273.46875 167.488281 267.378906 167.488281 259.894531 L 167.488281 222.554688 C 167.488281 207.253906 155.519531 194.695312 140.449219 193.746094 Z M 234.550781 193.746094 C 219.480469 194.695312 207.511719 207.253906 207.511719 222.554688 L 207.511719 259.894531 C 207.511719 267.378906 213.601562 273.46875 221.085938 273.46875 C 228.574219 273.46875 234.667969 267.378906 234.667969 259.894531 L 234.667969 196.609375 C 234.667969 195.644531 234.625 194.691406 234.550781 193.746094 Z M 314.351562 302.582031 C 311.972656 302.582031 310.046875 300.65625 310.046875 298.28125 L 310.046875 222.554688 C 310.046875 206.636719 297.09375 193.6875 281.171875 193.6875 L 243.171875 193.6875 C 243.238281 194.65625 243.265625 195.628906 243.265625 196.609375 L 243.265625 259.894531 C 243.265625 272.121094 233.316406 282.066406 221.085938 282.066406 C 208.859375 282.066406 198.90625 272.121094 198.90625 259.894531 L 198.90625 222.554688 C 198.90625 212.546875 202.804688 203.136719 209.882812 196.0625 C 216.109375 189.839844 224.136719 186.078125 232.789062 185.257812 C 228.054688 171.40625 214.902344 161.417969 199.460938 161.417969 L 175.539062 161.417969 C 160.097656 161.417969 146.945312 171.40625 142.210938 185.257812 C 150.863281 186.078125 158.890625 189.839844 165.117188 196.0625 C 172.195312 203.136719 176.09375 212.546875 176.09375 222.554688 L 176.09375 259.894531 C 176.09375 272.121094 166.140625 282.066406 153.914062 282.066406 C 141.683594 282.066406 131.730469 272.121094 131.730469 259.894531 L 131.730469 196.609375 C 131.730469 195.628906 131.765625 194.65625 131.828125 193.6875 L 93.828125 193.6875 C 77.90625 193.6875 64.953125 206.636719 64.953125 222.554688 L 64.953125 298.28125 C 64.953125 300.65625 63.027344 302.582031 60.648438 302.582031 C 58.273438 302.582031 56.347656 300.65625 56.347656 298.28125 L 56.347656 222.554688 C 56.347656 212.546875 60.246094 203.136719 67.324219 196.0625 C 74.40625 188.988281 83.816406 185.089844 93.828125 185.089844 L 133.253906 185.089844 C 135.230469 177.804688 139.078125 171.125 144.5625 165.644531 C 152.835938 157.375 163.835938 152.820312 175.539062 152.820312 L 199.460938 152.820312 C 211.164062 152.820312 222.164062 157.375 230.4375 165.644531 C 235.921875 171.125 239.769531 177.804688 241.746094 185.089844 L 281.171875 185.089844 C 291.183594 185.089844 300.59375 188.988281 307.675781 196.0625 C 314.753906 203.136719 318.652344 212.546875 318.652344 222.554688 L 318.652344 298.28125 C 318.652344 300.65625 316.726562 302.582031 314.351562 302.582031 " fill-opacity="1" fill-rule="nonzero"/></g><g clip-path="url(#f10f40f9b7)"><path fill="#000000" d="M 187.5 80.925781 C 173.664062 80.925781 162.410156 92.175781 162.410156 106.007812 C 162.410156 119.835938 173.664062 131.085938 187.5 131.085938 C 201.335938 131.085938 212.589844 119.835938 212.589844 106.007812 C 212.589844 92.175781 201.335938 80.925781 187.5 80.925781 Z M 187.5 139.683594 C 178.5 139.683594 170.039062 136.179688 163.675781 129.820312 C 157.3125 123.460938 153.808594 115.003906 153.808594 106.007812 C 153.808594 97.011719 157.3125 88.554688 163.675781 82.191406 C 170.039062 75.832031 178.5 72.328125 187.5 72.328125 C 196.5 72.328125 204.960938 75.832031 211.324219 82.191406 C 217.6875 88.554688 221.191406 97.011719 221.191406 106.007812 C 221.191406 115.003906 217.6875 123.460938 211.324219 129.820312 C 204.960938 136.179688 196.5 139.683594 187.5 139.683594 " fill-opacity="1" fill-rule="nonzero"/></g><path fill="#000000" d="M 261.839844 111.308594 C 248.003906 111.308594 236.746094 122.558594 236.746094 136.386719 C 236.746094 150.21875 248.003906 161.46875 261.839844 161.46875 C 275.671875 161.46875 286.929688 150.21875 286.929688 136.386719 C 286.929688 122.558594 275.671875 111.308594 261.839844 111.308594 Z M 261.839844 170.066406 C 252.839844 170.066406 244.378906 166.5625 238.011719 160.203125 C 231.648438 153.839844 228.144531 145.382812 228.144531 136.386719 C 228.144531 127.390625 231.648438 118.933594 238.011719 112.574219 C 244.378906 106.210938 252.839844 102.710938 261.839844 102.710938 C 270.835938 102.710938 279.296875 106.210938 285.664062 112.574219 C 292.023438 118.933594 295.53125 127.390625 295.53125 136.386719 C 295.53125 145.382812 292.023438 153.839844 285.664062 160.203125 C 279.296875 166.5625 270.835938 170.066406 261.839844 170.066406 " fill-opacity="1" fill-rule="nonzero"/><path fill="#000000" d="M 113.164062 111.308594 C 99.328125 111.308594 88.074219 122.558594 88.074219 136.386719 C 88.074219 150.214844 99.328125 161.46875 113.164062 161.46875 C 126.996094 161.46875 138.253906 150.214844 138.253906 136.386719 C 138.253906 122.558594 126.996094 111.308594 113.164062 111.308594 Z M 113.164062 170.066406 C 104.164062 170.066406 95.703125 166.5625 89.339844 160.203125 C 82.976562 153.839844 79.472656 145.382812 79.472656 136.386719 C 79.472656 127.390625 82.976562 118.933594 89.339844 112.574219 C 95.703125 106.214844 104.164062 102.710938 113.164062 102.710938 C 122.164062 102.710938 130.625 106.214844 136.988281 112.574219 C 143.351562 118.933594 146.855469 127.390625 146.855469 136.386719 C 146.855469 145.382812 143.351562 153.839844 136.988281 160.203125 C 130.625 166.5625 122.164062 170.066406 113.164062 170.066406 " fill-opacity="1" fill-rule="nonzero"/></svg>