<svg xmlns="http://www.w3.org/2000/svg" xmlns:xlink="http://www.w3.org/1999/xlink" width="1000" zoomAndPan="magnify" viewBox="0 0 750 749.999995" height="1000" preserveAspectRatio="xMidYMid meet" version="1.0"><defs><clipPath id="8e1f98987c"><path d="M 94 93.601562 L 656.101562 93.601562 L 656.101562 654 L 94 654 Z M 94 93.601562 " clip-rule="nonzero"/></clipPath></defs><rect x="-75" width="900" fill="#ffffff" y="-74.999999" height="899.999994" fill-opacity="1"/><rect x="-75" width="900" fill="#ffffff" y="-74.999999" height="899.999994" fill-opacity="1"/><g clip-path="url(#8e1f98987c)"><path fill="#000000" d="M 639.273438 544.691406 C 644.882812 532.476562 649.105469 519.796875 651.941406 506.65625 C 654.78125 493.519531 656.167969 480.226562 656.101562 466.785156 C 656.101562 463.722656 656.027344 460.667969 655.878906 457.609375 C 655.726562 454.554688 655.5 451.503906 655.203125 448.457031 C 654.902344 445.410156 654.527344 442.375 654.078125 439.347656 C 653.628906 436.320312 653.105469 433.308594 652.507812 430.304688 C 651.914062 427.304688 651.242188 424.320312 650.5 421.351562 C 649.753906 418.382812 648.9375 415.433594 648.050781 412.507812 C 647.164062 409.578125 646.203125 406.671875 645.171875 403.792969 C 644.140625 400.910156 643.039062 398.058594 641.867188 395.230469 C 640.699219 392.402344 639.457031 389.605469 638.148438 386.839844 C 636.839844 384.074219 635.464844 381.339844 634.023438 378.640625 C 632.582031 375.945312 631.074219 373.28125 629.5 370.65625 C 627.925781 368.03125 626.289062 365.449219 624.589844 362.902344 C 622.890625 360.359375 621.128906 357.859375 619.304688 355.398438 C 617.484375 352.941406 615.601562 350.53125 613.660156 348.164062 C 611.71875 345.800781 609.71875 343.484375 607.664062 341.214844 C 605.609375 338.949219 603.5 336.734375 601.335938 334.570312 C 599.171875 332.40625 596.957031 330.296875 594.691406 328.242188 C 592.421875 326.1875 590.105469 324.1875 587.742188 322.246094 C 585.375 320.304688 582.964844 318.421875 580.503906 316.601562 C 578.046875 314.777344 575.546875 313.015625 573.003906 311.316406 C 570.457031 309.617188 567.875 307.980469 565.25 306.40625 C 562.625 304.832031 559.960938 303.324219 557.261719 301.882812 C 554.566406 300.441406 551.832031 299.0625 549.066406 297.757812 C 546.300781 296.449219 543.503906 295.207031 540.675781 294.035156 C 537.847656 292.867188 534.996094 291.765625 532.113281 290.734375 C 529.230469 289.703125 526.328125 288.742188 523.398438 287.855469 C 520.472656 286.96875 517.523438 286.152344 514.554688 285.40625 C 511.585938 284.664062 508.601562 283.992188 505.601562 283.398438 C 502.597656 282.800781 499.585938 282.277344 496.558594 281.828125 C 493.53125 281.378906 490.496094 281.003906 487.449219 280.703125 C 484.402344 280.402344 481.351562 280.179688 478.296875 280.027344 C 475.238281 279.878906 472.183594 279.804688 469.121094 279.804688 C 469.121094 276.742188 469.046875 273.683594 468.894531 270.628906 C 468.746094 267.574219 468.519531 264.523438 468.222656 261.476562 C 467.921875 258.429688 467.546875 255.394531 467.097656 252.367188 C 466.648438 249.339844 466.125 246.328125 465.527344 243.324219 C 464.933594 240.324219 464.261719 237.339844 463.519531 234.371094 C 462.773438 231.402344 461.957031 228.453125 461.070312 225.527344 C 460.183594 222.597656 459.222656 219.691406 458.191406 216.8125 C 457.160156 213.929688 456.058594 211.078125 454.886719 208.25 C 453.71875 205.421875 452.476562 202.625 451.167969 199.859375 C 449.859375 197.09375 448.484375 194.359375 447.042969 191.660156 C 445.601562 188.964844 444.09375 186.300781 442.519531 183.675781 C 440.945312 181.050781 439.308594 178.46875 437.609375 175.921875 C 435.910156 173.378906 434.148438 170.878906 432.324219 168.417969 C 430.503906 165.960938 428.621094 163.550781 426.679688 161.183594 C 424.738281 158.820312 422.738281 156.503906 420.683594 154.234375 C 418.628906 151.96875 416.519531 149.753906 414.355469 147.589844 C 412.191406 145.425781 409.976562 143.316406 407.710938 141.261719 C 405.441406 139.207031 403.125 137.207031 400.761719 135.265625 C 398.394531 133.324219 395.984375 131.441406 393.523438 129.621094 C 391.066406 127.796875 388.566406 126.035156 386.023438 124.335938 C 383.476562 122.636719 380.894531 121 378.269531 119.425781 C 375.644531 117.851562 372.980469 116.34375 370.28125 114.902344 C 367.585938 113.460938 364.851562 112.082031 362.085938 110.777344 C 359.320312 109.46875 356.523438 108.226562 353.695312 107.054688 C 350.867188 105.886719 348.015625 104.785156 345.132812 103.753906 C 342.25 102.722656 339.347656 101.761719 336.417969 100.875 C 333.492188 99.984375 330.542969 99.171875 327.574219 98.425781 C 324.605469 97.683594 321.621094 97.011719 318.617188 96.417969 C 315.617188 95.820312 312.605469 95.296875 309.578125 94.847656 C 306.550781 94.398438 303.511719 94.023438 300.46875 93.722656 C 297.421875 93.421875 294.371094 93.199219 291.316406 93.046875 C 288.257812 92.898438 285.199219 92.824219 282.140625 92.824219 C 279.082031 92.824219 276.023438 92.898438 272.964844 93.046875 C 269.910156 93.199219 266.859375 93.421875 263.8125 93.722656 C 260.769531 94.023438 257.730469 94.398438 254.707031 94.847656 C 251.679688 95.296875 248.664062 95.820312 245.664062 96.417969 C 242.660156 97.011719 239.675781 97.683594 236.707031 98.425781 C 233.738281 99.171875 230.792969 99.984375 227.863281 100.875 C 224.933594 101.761719 222.03125 102.722656 219.148438 103.753906 C 216.269531 104.785156 213.414062 105.886719 210.585938 107.054688 C 207.757812 108.226562 204.960938 109.46875 202.195312 110.777344 C 199.429688 112.082031 196.699219 113.460938 194 114.902344 C 191.300781 116.34375 188.636719 117.851562 186.015625 119.425781 C 183.390625 121 180.804688 122.636719 178.261719 124.335938 C 175.714844 126.035156 173.214844 127.796875 170.757812 129.621094 C 168.300781 131.441406 165.886719 133.324219 163.523438 135.265625 C 161.15625 137.207031 158.839844 139.207031 156.574219 141.261719 C 154.304688 143.316406 152.089844 145.425781 149.925781 147.589844 C 147.761719 149.753906 145.652344 151.96875 143.597656 154.234375 C 141.542969 156.503906 139.542969 158.820312 137.601562 161.183594 C 135.660156 163.550781 133.78125 165.960938 131.957031 168.417969 C 130.132812 170.878906 128.371094 173.378906 126.671875 175.921875 C 124.972656 178.46875 123.335938 181.050781 121.761719 183.675781 C 120.1875 186.300781 118.679688 188.964844 117.238281 191.660156 C 115.796875 194.359375 114.421875 197.09375 113.113281 199.859375 C 111.804688 202.625 110.566406 205.421875 109.394531 208.25 C 108.222656 211.078125 107.121094 213.929688 106.089844 216.8125 C 105.058594 219.691406 104.101562 222.597656 103.210938 225.527344 C 102.324219 228.453125 101.507812 231.402344 100.765625 234.371094 C 100.019531 237.339844 99.351562 240.324219 98.753906 243.324219 C 98.15625 246.328125 97.632812 249.339844 97.183594 252.367188 C 96.734375 255.394531 96.359375 258.429688 96.0625 261.476562 C 95.761719 264.523438 95.535156 267.574219 95.386719 270.628906 C 95.234375 273.683594 95.160156 276.742188 95.160156 279.804688 C 95.09375 293.246094 96.480469 306.539062 99.320312 319.675781 C 102.160156 332.816406 106.382812 345.496094 111.988281 357.710938 L 95.160156 448.398438 C 95.058594 448.964844 94.984375 449.53125 94.945312 450.105469 C 94.902344 450.679688 94.894531 451.253906 94.917969 451.828125 C 94.941406 452.402344 94.996094 452.972656 95.082031 453.539062 C 95.167969 454.109375 95.285156 454.667969 95.433594 455.226562 C 95.582031 455.78125 95.757812 456.324219 95.96875 456.859375 C 96.175781 457.394531 96.414062 457.917969 96.679688 458.425781 C 96.945312 458.9375 97.242188 459.429688 97.5625 459.90625 C 97.882812 460.382812 98.230469 460.839844 98.601562 461.277344 C 98.972656 461.71875 99.367188 462.132812 99.785156 462.527344 C 100.203125 462.921875 100.640625 463.292969 101.097656 463.640625 C 101.554688 463.984375 102.03125 464.304688 102.527344 464.597656 C 103.019531 464.894531 103.527344 465.160156 104.050781 465.394531 C 104.574219 465.632812 105.109375 465.839844 105.65625 466.019531 C 106.203125 466.195312 106.757812 466.34375 107.320312 466.460938 C 107.882812 466.578125 108.449219 466.664062 109.023438 466.71875 C 109.59375 466.773438 110.167969 466.792969 110.742188 466.785156 L 113.546875 466.785156 L 204.230469 449.957031 C 216.449219 455.5625 229.128906 459.785156 242.269531 462.625 C 255.40625 465.460938 268.699219 466.847656 282.140625 466.785156 C 282.140625 469.84375 282.214844 472.902344 282.367188 475.960938 C 282.515625 479.015625 282.742188 482.066406 283.042969 485.113281 C 283.339844 488.15625 283.714844 491.191406 284.164062 494.21875 C 284.613281 497.246094 285.136719 500.261719 285.734375 503.261719 C 286.332031 506.265625 287 509.25 287.746094 512.21875 C 288.488281 515.183594 289.304688 518.132812 290.191406 521.0625 C 291.082031 523.992188 292.039062 526.894531 293.070312 529.777344 C 294.101562 532.65625 295.203125 535.511719 296.375 538.339844 C 297.546875 541.164062 298.785156 543.960938 300.09375 546.730469 C 301.402344 549.496094 302.777344 552.226562 304.21875 554.925781 C 305.660156 557.625 307.167969 560.285156 308.742188 562.910156 C 310.316406 565.535156 311.953125 568.121094 313.652344 570.664062 C 315.351562 573.210938 317.113281 575.710938 318.9375 578.167969 C 320.761719 580.625 322.640625 583.039062 324.582031 585.402344 C 326.523438 587.769531 328.523438 590.085938 330.578125 592.351562 C 332.632812 594.621094 334.742188 596.835938 336.90625 599 C 339.070312 601.164062 341.285156 603.273438 343.554688 605.328125 C 345.820312 607.382812 348.136719 609.382812 350.503906 611.324219 C 352.867188 613.265625 355.28125 615.144531 357.738281 616.96875 C 360.195312 618.792969 362.695312 620.554688 365.242188 622.253906 C 367.785156 623.953125 370.371094 625.589844 372.996094 627.164062 C 375.617188 628.734375 378.28125 630.242188 380.980469 631.6875 C 383.679688 633.128906 386.410156 634.503906 389.175781 635.8125 C 391.941406 637.121094 394.738281 638.359375 397.566406 639.53125 C 400.394531 640.703125 403.25 641.804688 406.128906 642.835938 C 409.011719 643.867188 411.914062 644.824219 414.84375 645.714844 C 417.773438 646.601562 420.71875 647.417969 423.6875 648.160156 C 426.65625 648.90625 429.640625 649.574219 432.644531 650.171875 C 435.644531 650.769531 438.660156 651.292969 441.6875 651.742188 C 444.710938 652.191406 447.75 652.566406 450.792969 652.863281 C 453.839844 653.164062 456.890625 653.390625 459.945312 653.539062 C 463.003906 653.691406 466.0625 653.765625 469.121094 653.765625 C 482.5625 653.828125 495.855469 652.441406 508.996094 649.605469 C 522.132812 646.765625 534.8125 642.542969 547.03125 636.9375 L 637.714844 653.765625 L 640.519531 653.765625 C 641.09375 653.773438 641.667969 653.753906 642.242188 653.699219 C 642.8125 653.644531 643.378906 653.558594 643.941406 653.441406 C 644.503906 653.324219 645.058594 653.175781 645.605469 653 C 646.152344 652.820312 646.6875 652.613281 647.210938 652.375 C 647.734375 652.140625 648.242188 651.875 648.734375 651.582031 C 649.230469 651.285156 649.707031 650.964844 650.164062 650.621094 C 650.625 650.273438 651.0625 649.902344 651.480469 649.507812 C 651.894531 649.113281 652.292969 648.699219 652.664062 648.257812 C 653.035156 647.820312 653.378906 647.363281 653.699219 646.886719 C 654.023438 646.410156 654.316406 645.917969 654.582031 645.40625 C 654.847656 644.898438 655.085938 644.375 655.292969 643.839844 C 655.503906 643.304688 655.679688 642.761719 655.828125 642.207031 C 655.976562 641.648438 656.09375 641.089844 656.179688 640.519531 C 656.265625 639.953125 656.320312 639.382812 656.34375 638.808594 C 656.367188 638.234375 656.359375 637.660156 656.316406 637.085938 C 656.277344 636.511719 656.207031 635.945312 656.101562 635.378906 Z M 213.894531 420.039062 C 211.726562 418.992188 209.441406 418.472656 207.039062 418.480469 L 204.230469 418.480469 L 130.0625 432.039062 L 143.621094 357.710938 C 143.863281 356.050781 143.835938 354.394531 143.542969 352.742188 C 143.25 351.089844 142.703125 349.527344 141.90625 348.050781 C 136.722656 337.425781 132.816406 326.351562 130.183594 314.824219 C 127.550781 303.300781 126.265625 291.625 126.324219 279.804688 C 126.324219 277.253906 126.386719 274.707031 126.511719 272.160156 C 126.636719 269.609375 126.824219 267.070312 127.074219 264.53125 C 127.324219 261.992188 127.636719 259.464844 128.011719 256.941406 C 128.382812 254.417969 128.820312 251.90625 129.316406 249.40625 C 129.816406 246.90625 130.375 244.417969 130.992188 241.945312 C 131.613281 239.46875 132.292969 237.011719 133.035156 234.574219 C 133.773438 232.132812 134.574219 229.710938 135.433594 227.3125 C 136.292969 224.910156 137.207031 222.53125 138.183594 220.175781 C 139.160156 217.820312 140.195312 215.488281 141.285156 213.183594 C 142.375 210.878906 143.519531 208.601562 144.722656 206.351562 C 145.925781 204.101562 147.179688 201.886719 148.492188 199.699219 C 149.804688 197.511719 151.167969 195.355469 152.582031 193.238281 C 154 191.117188 155.46875 189.03125 156.988281 186.984375 C 158.507812 184.933594 160.074219 182.925781 161.691406 180.953125 C 163.308594 178.984375 164.976562 177.054688 166.6875 175.164062 C 168.402344 173.273438 170.160156 171.425781 171.960938 169.625 C 173.765625 167.820312 175.609375 166.0625 177.5 164.351562 C 179.390625 162.636719 181.320312 160.972656 183.292969 159.355469 C 185.261719 157.738281 187.273438 156.167969 189.320312 154.648438 C 191.367188 153.132812 193.453125 151.664062 195.574219 150.246094 C 197.695312 148.828125 199.847656 147.464844 202.035156 146.15625 C 204.222656 144.84375 206.441406 143.585938 208.6875 142.386719 C 210.9375 141.183594 213.214844 140.035156 215.519531 138.945312 C 217.824219 137.855469 220.15625 136.824219 222.511719 135.847656 C 224.867188 134.871094 227.246094 133.953125 229.648438 133.09375 C 232.046875 132.234375 234.46875 131.4375 236.910156 130.695312 C 239.351562 129.957031 241.808594 129.277344 244.28125 128.65625 C 246.753906 128.035156 249.242188 127.476562 251.742188 126.980469 C 254.242188 126.484375 256.753906 126.046875 259.277344 125.671875 C 261.800781 125.300781 264.332031 124.988281 266.867188 124.738281 C 269.40625 124.488281 271.949219 124.300781 274.496094 124.175781 C 277.042969 124.050781 279.589844 123.988281 282.140625 123.988281 C 284.691406 123.988281 287.238281 124.050781 289.785156 124.175781 C 292.332031 124.300781 294.875 124.488281 297.414062 124.738281 C 299.953125 124.988281 302.480469 125.300781 305.003906 125.671875 C 307.527344 126.046875 310.039062 126.484375 312.539062 126.980469 C 315.039062 127.476562 317.527344 128.035156 320 128.65625 C 322.476562 129.277344 324.933594 129.957031 327.371094 130.695312 C 329.8125 131.4375 332.234375 132.234375 334.632812 133.09375 C 337.035156 133.953125 339.414062 134.871094 341.769531 135.847656 C 344.125 136.824219 346.457031 137.855469 348.761719 138.945312 C 351.066406 140.035156 353.34375 141.183594 355.59375 142.386719 C 357.839844 143.585938 360.058594 144.84375 362.246094 146.15625 C 364.433594 147.464844 366.589844 148.828125 368.707031 150.246094 C 370.828125 151.664062 372.914062 153.132812 374.960938 154.648438 C 377.007812 156.167969 379.019531 157.738281 380.992188 159.355469 C 382.960938 160.972656 384.890625 162.636719 386.78125 164.351562 C 388.671875 166.0625 390.515625 167.820312 392.320312 169.625 C 394.125 171.425781 395.882812 173.273438 397.59375 175.164062 C 399.304688 177.054688 400.972656 178.984375 402.589844 180.953125 C 404.207031 182.925781 405.777344 184.933594 407.292969 186.984375 C 408.8125 189.03125 410.28125 191.117188 411.699219 193.238281 C 413.113281 195.355469 414.480469 197.511719 415.789062 199.699219 C 417.101562 201.886719 418.355469 204.101562 419.558594 206.351562 C 420.761719 208.601562 421.90625 210.878906 422.996094 213.183594 C 424.089844 215.488281 425.121094 217.820312 426.097656 220.175781 C 427.074219 222.53125 427.992188 224.910156 428.851562 227.3125 C 429.707031 229.710938 430.507812 232.132812 431.25 234.574219 C 431.988281 237.011719 432.667969 239.46875 433.289062 241.945312 C 433.90625 244.417969 434.464844 246.90625 434.964844 249.40625 C 435.460938 251.90625 435.898438 254.417969 436.273438 256.941406 C 436.644531 259.464844 436.957031 261.992188 437.207031 264.53125 C 437.457031 267.070312 437.644531 269.609375 437.769531 272.160156 C 437.894531 274.707031 437.957031 277.253906 437.957031 279.804688 C 437.957031 282.355469 437.894531 284.902344 437.769531 287.449219 C 437.644531 289.996094 437.457031 292.539062 437.207031 295.078125 C 436.957031 297.613281 436.644531 300.144531 436.273438 302.667969 C 435.898438 305.1875 435.460938 307.703125 434.964844 310.203125 C 434.464844 312.703125 433.90625 315.191406 433.289062 317.664062 C 432.667969 320.136719 431.988281 322.59375 431.25 325.035156 C 430.507812 327.476562 429.707031 329.894531 428.851562 332.296875 C 427.992188 334.699219 427.074219 337.078125 426.097656 339.433594 C 425.121094 341.789062 424.089844 344.117188 422.996094 346.425781 C 421.90625 348.730469 420.761719 351.007812 419.558594 353.253906 C 418.355469 355.503906 417.101562 357.722656 415.789062 359.910156 C 414.480469 362.097656 413.113281 364.25 411.699219 366.371094 C 410.28125 368.492188 408.8125 370.574219 407.292969 372.625 C 405.777344 374.671875 404.207031 376.683594 402.589844 378.652344 C 400.972656 380.625 399.304688 382.554688 397.59375 384.445312 C 395.882812 386.332031 394.125 388.179688 392.320312 389.984375 C 390.515625 391.785156 388.671875 393.542969 386.78125 395.257812 C 384.890625 396.96875 382.960938 398.632812 380.992188 400.253906 C 379.019531 401.871094 377.007812 403.4375 374.960938 404.957031 C 372.914062 406.476562 370.828125 407.945312 368.707031 409.359375 C 366.589844 410.777344 364.433594 412.140625 362.246094 413.453125 C 360.058594 414.765625 357.839844 416.019531 355.59375 417.222656 C 353.34375 418.425781 351.066406 419.570312 348.761719 420.660156 C 346.457031 421.75 344.125 422.785156 341.769531 423.761719 C 339.414062 424.734375 337.035156 425.652344 334.632812 426.511719 C 332.234375 427.371094 329.8125 428.171875 327.371094 428.910156 C 324.933594 429.652344 322.476562 430.332031 320 430.953125 C 317.527344 431.570312 315.039062 432.128906 312.539062 432.628906 C 310.039062 433.125 307.527344 433.558594 305.003906 433.933594 C 302.480469 434.308594 299.953125 434.621094 297.414062 434.871094 C 294.875 435.121094 292.332031 435.308594 289.785156 435.433594 C 287.238281 435.558594 284.691406 435.621094 282.140625 435.621094 C 270.320312 435.679688 258.644531 434.390625 247.121094 431.761719 C 235.59375 429.128906 224.519531 425.222656 213.894531 420.039062 Z M 607.644531 544.691406 L 621.199219 618.863281 L 547.03125 605.304688 C 545.386719 605.015625 543.738281 604.992188 542.085938 605.230469 C 540.433594 605.46875 538.863281 605.964844 537.371094 606.707031 C 526.757812 611.945312 515.6875 615.90625 504.160156 618.589844 C 492.636719 621.273438 480.957031 622.609375 469.121094 622.601562 C 466.570312 622.601562 464.023438 622.539062 461.476562 622.414062 C 458.929688 622.289062 456.386719 622.101562 453.847656 621.851562 C 451.3125 621.601562 448.78125 621.289062 446.257812 620.914062 C 443.734375 620.539062 441.222656 620.105469 438.722656 619.609375 C 436.222656 619.109375 433.734375 618.550781 431.261719 617.933594 C 428.789062 617.3125 426.332031 616.632812 423.890625 615.890625 C 421.449219 615.152344 419.03125 614.351562 416.628906 613.492188 C 414.226562 612.632812 411.847656 611.714844 409.492188 610.742188 C 407.136719 609.765625 404.804688 608.730469 402.5 607.640625 C 400.195312 606.550781 397.917969 605.40625 395.667969 604.203125 C 393.421875 603 391.203125 601.746094 389.015625 600.433594 C 386.828125 599.121094 384.675781 597.757812 382.554688 596.339844 C 380.433594 594.925781 378.347656 593.457031 376.300781 591.9375 C 374.253906 590.417969 372.242188 588.851562 370.273438 587.234375 C 368.300781 585.613281 366.371094 583.949219 364.480469 582.238281 C 362.589844 580.523438 360.746094 578.765625 358.941406 576.964844 C 357.140625 575.160156 355.382812 573.3125 353.667969 571.425781 C 351.957031 569.535156 350.289062 567.605469 348.671875 565.632812 C 347.054688 563.664062 345.488281 561.652344 343.96875 559.605469 C 342.449219 557.554688 340.980469 555.472656 339.5625 553.351562 C 338.148438 551.230469 336.785156 549.078125 335.472656 546.890625 C 334.160156 544.703125 332.90625 542.484375 331.703125 540.234375 C 330.5 537.988281 329.355469 535.710938 328.265625 533.40625 C 327.175781 531.097656 326.140625 528.769531 325.164062 526.414062 C 324.1875 524.058594 323.273438 521.679688 322.414062 519.277344 C 321.554688 516.875 320.753906 514.457031 320.015625 512.015625 C 319.273438 509.574219 318.59375 507.117188 317.972656 504.644531 C 317.355469 502.171875 316.796875 499.683594 316.296875 497.183594 C 315.800781 494.683594 315.363281 492.171875 314.992188 489.648438 C 314.617188 487.125 314.304688 484.59375 314.054688 482.058594 C 313.804688 479.519531 313.617188 476.976562 313.492188 474.429688 C 313.367188 471.882812 313.304688 469.335938 313.304688 466.785156 L 313.304688 463.980469 C 315.675781 463.578125 318.035156 463.128906 320.390625 462.636719 C 322.742188 462.140625 325.082031 461.601562 327.414062 461.019531 C 329.746094 460.433594 332.066406 459.804688 334.375 459.132812 C 336.683594 458.457031 338.976562 457.738281 341.257812 456.976562 C 343.539062 456.214844 345.800781 455.410156 348.050781 454.558594 C 350.300781 453.710938 352.53125 452.816406 354.746094 451.882812 C 356.960938 450.945312 359.15625 449.96875 361.332031 448.949219 C 363.511719 447.929688 365.667969 446.867188 367.800781 445.761719 C 369.9375 444.660156 372.050781 443.515625 374.144531 442.332031 C 376.234375 441.144531 378.304688 439.921875 380.347656 438.65625 C 382.390625 437.390625 384.410156 436.085938 386.40625 434.746094 C 388.398438 433.402344 390.367188 432.019531 392.308594 430.601562 C 394.25 429.183594 396.164062 427.730469 398.046875 426.238281 C 399.933594 424.742188 401.785156 423.214844 403.613281 421.652344 C 405.4375 420.089844 407.234375 418.488281 408.996094 416.855469 C 410.761719 415.222656 412.496094 413.558594 414.195312 411.855469 C 415.894531 410.15625 417.5625 408.425781 419.195312 406.660156 C 420.828125 404.898438 422.425781 403.101562 423.988281 401.277344 C 425.554688 399.449219 427.082031 397.59375 428.574219 395.710938 C 430.066406 393.824219 431.519531 391.910156 432.941406 389.972656 C 434.359375 388.03125 435.738281 386.0625 437.082031 384.070312 C 438.425781 382.074219 439.726562 380.054688 440.992188 378.011719 C 442.257812 375.964844 443.480469 373.898438 444.667969 371.804688 C 445.851562 369.714844 446.996094 367.601562 448.101562 365.464844 C 449.203125 363.328125 450.265625 361.171875 451.285156 358.996094 C 452.304688 356.820312 453.285156 354.625 454.21875 352.410156 C 455.15625 350.195312 456.046875 347.960938 456.898438 345.714844 C 457.746094 343.464844 458.550781 341.199219 459.3125 338.921875 C 460.078125 336.640625 460.792969 334.347656 461.46875 332.039062 C 462.140625 329.730469 462.769531 327.410156 463.355469 325.078125 C 463.9375 322.746094 464.476562 320.40625 464.972656 318.050781 C 465.464844 315.699219 465.914062 313.335938 466.316406 310.96875 L 469.121094 310.96875 C 471.671875 310.96875 474.21875 311.03125 476.765625 311.15625 C 479.3125 311.28125 481.855469 311.46875 484.394531 311.71875 C 486.933594 311.96875 489.460938 312.28125 491.984375 312.652344 C 494.507812 313.027344 497.019531 313.464844 499.519531 313.960938 C 502.019531 314.457031 504.507812 315.015625 506.980469 315.636719 C 509.457031 316.257812 511.914062 316.9375 514.351562 317.675781 C 516.792969 318.417969 519.214844 319.214844 521.613281 320.074219 C 524.015625 320.933594 526.394531 321.851562 528.75 322.828125 C 531.105469 323.804688 533.4375 324.835938 535.742188 325.925781 C 538.046875 327.019531 540.324219 328.164062 542.574219 329.367188 C 544.820312 330.566406 547.039062 331.824219 549.226562 333.136719 C 551.414062 334.445312 553.570312 335.808594 555.6875 337.226562 C 557.808594 338.644531 559.894531 340.113281 561.941406 341.632812 C 563.988281 343.148438 566 344.71875 567.972656 346.335938 C 569.941406 347.953125 571.871094 349.617188 573.761719 351.332031 C 575.652344 353.042969 577.496094 354.800781 579.300781 356.605469 C 581.105469 358.410156 582.863281 360.253906 584.574219 362.144531 C 586.285156 364.035156 587.953125 365.964844 589.570312 367.933594 C 591.1875 369.90625 592.757812 371.914062 594.273438 373.964844 C 595.792969 376.011719 597.261719 378.097656 598.679688 380.21875 C 600.09375 382.335938 601.460938 384.492188 602.769531 386.679688 C 604.082031 388.867188 605.339844 391.082031 606.539062 393.332031 C 607.742188 395.582031 608.886719 397.859375 609.980469 400.164062 C 611.070312 402.46875 612.101562 404.800781 613.078125 407.15625 C 614.054688 409.511719 614.972656 411.890625 615.832031 414.292969 C 616.6875 416.691406 617.488281 419.113281 618.230469 421.554688 C 618.96875 423.992188 619.648438 426.449219 620.269531 428.925781 C 620.886719 431.398438 621.445312 433.886719 621.945312 436.386719 C 622.441406 438.886719 622.878906 441.398438 623.253906 443.921875 C 623.625 446.445312 623.9375 448.972656 624.1875 451.511719 C 624.4375 454.050781 624.625 456.59375 624.75 459.140625 C 624.875 461.6875 624.9375 464.234375 624.9375 466.785156 C 624.996094 478.605469 623.710938 490.28125 621.078125 501.804688 C 618.445312 513.332031 614.539062 524.40625 609.355469 535.03125 C 608.558594 536.507812 608.011719 538.070312 607.71875 539.722656 C 607.425781 541.375 607.402344 543.03125 607.644531 544.691406 Z M 607.644531 544.691406 " fill-opacity="1" fill-rule="nonzero"/></g><path fill="#000000" d="M 301.152344 205.324219 C 301.152344 205.945312 301.121094 206.566406 301.058594 207.1875 C 301 207.804688 300.90625 208.421875 300.785156 209.03125 C 300.664062 209.640625 300.511719 210.246094 300.332031 210.839844 C 300.152344 211.4375 299.941406 212.023438 299.703125 212.597656 C 299.464844 213.171875 299.199219 213.734375 298.90625 214.285156 C 298.613281 214.832031 298.292969 215.367188 297.945312 215.882812 C 297.601562 216.402344 297.230469 216.902344 296.835938 217.382812 C 296.441406 217.863281 296.023438 218.324219 295.582031 218.765625 C 295.144531 219.207031 294.683594 219.621094 294.199219 220.019531 C 293.71875 220.414062 293.21875 220.785156 292.703125 221.128906 C 292.183594 221.476562 291.652344 221.792969 291.101562 222.089844 C 290.554688 222.382812 289.992188 222.648438 289.414062 222.886719 C 288.839844 223.125 288.253906 223.332031 287.660156 223.515625 C 287.0625 223.695312 286.460938 223.847656 285.847656 223.96875 C 285.238281 224.089844 284.625 224.179688 284.003906 224.242188 C 283.382812 224.300781 282.761719 224.332031 282.140625 224.332031 C 281.519531 224.332031 280.898438 224.300781 280.277344 224.242188 C 279.65625 224.179688 279.042969 224.089844 278.433594 223.96875 C 277.820312 223.847656 277.21875 223.695312 276.621094 223.515625 C 276.027344 223.332031 275.441406 223.125 274.867188 222.886719 C 274.292969 222.648438 273.730469 222.382812 273.179688 222.089844 C 272.628906 221.792969 272.097656 221.476562 271.578125 221.128906 C 271.0625 220.785156 270.5625 220.414062 270.082031 220.019531 C 269.601562 219.621094 269.140625 219.207031 268.699219 218.765625 C 268.257812 218.324219 267.839844 217.863281 267.445312 217.382812 C 267.050781 216.902344 266.679688 216.402344 266.335938 215.882812 C 265.988281 215.367188 265.667969 214.832031 265.375 214.285156 C 265.082031 213.734375 264.816406 213.171875 264.578125 212.597656 C 264.339844 212.023438 264.128906 211.4375 263.949219 210.839844 C 263.769531 210.246094 263.617188 209.640625 263.496094 209.03125 C 263.375 208.421875 263.285156 207.804688 263.222656 207.1875 C 263.160156 206.566406 263.132812 205.945312 263.132812 205.324219 C 263.132812 204.699219 263.160156 204.078125 263.222656 203.460938 C 263.285156 202.839844 263.375 202.226562 263.496094 201.613281 C 263.617188 201.003906 263.769531 200.402344 263.949219 199.804688 C 264.128906 199.210938 264.339844 198.625 264.578125 198.046875 C 264.816406 197.472656 265.082031 196.910156 265.375 196.363281 C 265.667969 195.8125 265.988281 195.28125 266.335938 194.761719 C 266.679688 194.246094 267.050781 193.746094 267.445312 193.261719 C 267.839844 192.78125 268.257812 192.320312 268.699219 191.882812 C 269.140625 191.441406 269.601562 191.023438 270.082031 190.628906 C 270.5625 190.234375 271.0625 189.863281 271.578125 189.515625 C 272.097656 189.171875 272.628906 188.851562 273.179688 188.558594 C 273.730469 188.265625 274.292969 188 274.867188 187.761719 C 275.441406 187.523438 276.027344 187.3125 276.621094 187.132812 C 277.21875 186.953125 277.820312 186.800781 278.433594 186.679688 C 279.042969 186.558594 279.65625 186.464844 280.277344 186.40625 C 280.898438 186.34375 281.519531 186.3125 282.140625 186.3125 C 282.761719 186.3125 283.382812 186.34375 284.003906 186.40625 C 284.625 186.464844 285.238281 186.558594 285.847656 186.679688 C 286.460938 186.800781 287.0625 186.953125 287.660156 187.132812 C 288.253906 187.3125 288.839844 187.523438 289.414062 187.761719 C 289.992188 188 290.554688 188.265625 291.101562 188.558594 C 291.652344 188.851562 292.183594 189.171875 292.703125 189.515625 C 293.21875 189.863281 293.71875 190.234375 294.199219 190.628906 C 294.683594 191.023438 295.144531 191.441406 295.582031 191.882812 C 296.023438 192.320312 296.441406 192.78125 296.835938 193.261719 C 297.230469 193.746094 297.601562 194.246094 297.945312 194.761719 C 298.292969 195.28125 298.613281 195.8125 298.90625 196.363281 C 299.199219 196.910156 299.464844 197.472656 299.703125 198.046875 C 299.941406 198.625 300.152344 199.210938 300.332031 199.804688 C 300.511719 200.402344 300.664062 201.003906 300.785156 201.613281 C 300.90625 202.226562 301 202.839844 301.058594 203.460938 C 301.121094 204.078125 301.152344 204.699219 301.152344 205.324219 Z M 301.152344 205.324219 " fill-opacity="1" fill-rule="nonzero"/><path fill="#000000" d="M 301.152344 373.292969 C 302.171875 373.292969 303.1875 373.195312 304.191406 372.996094 C 305.195312 372.796875 306.167969 372.5 307.113281 372.109375 C 308.058594 371.714844 308.957031 371.238281 309.808594 370.667969 C 310.65625 370.101562 311.445312 369.453125 312.167969 368.730469 C 312.890625 368.007812 313.539062 367.21875 314.105469 366.371094 C 314.675781 365.519531 315.15625 364.621094 315.546875 363.675781 C 315.9375 362.730469 316.234375 361.753906 316.433594 360.753906 C 316.632812 359.75 316.730469 358.734375 316.730469 357.710938 C 316.730469 356.6875 316.632812 355.675781 316.433594 354.671875 C 316.234375 353.667969 315.9375 352.695312 315.546875 351.75 C 315.15625 350.804688 314.675781 349.90625 314.105469 349.054688 C 313.539062 348.203125 312.890625 347.417969 312.167969 346.695312 C 311.445312 345.972656 310.65625 345.324219 309.808594 344.757812 C 308.957031 344.1875 308.058594 343.707031 307.113281 343.316406 C 306.167969 342.925781 305.195312 342.628906 304.191406 342.429688 C 303.1875 342.230469 302.171875 342.128906 301.152344 342.128906 L 297.722656 342.128906 L 297.722656 262.507812 C 297.722656 261.484375 297.621094 260.472656 297.421875 259.46875 C 297.222656 258.464844 296.929688 257.492188 296.535156 256.546875 C 296.144531 255.601562 295.664062 254.703125 295.097656 253.851562 C 294.527344 253 293.882812 252.214844 293.160156 251.488281 C 292.433594 250.765625 291.648438 250.121094 290.796875 249.550781 C 289.945312 248.984375 289.050781 248.503906 288.105469 248.113281 C 287.160156 247.722656 286.183594 247.425781 285.179688 247.226562 C 284.175781 247.027344 283.164062 246.925781 282.140625 246.925781 L 263.132812 246.925781 C 262.109375 246.925781 261.09375 247.027344 260.089844 247.226562 C 259.089844 247.425781 258.113281 247.722656 257.167969 248.113281 C 256.222656 248.503906 255.324219 248.984375 254.472656 249.550781 C 253.625 250.121094 252.835938 250.765625 252.113281 251.488281 C 251.390625 252.214844 250.742188 253 250.175781 253.851562 C 249.605469 254.703125 249.128906 255.601562 248.734375 256.546875 C 248.34375 257.492188 248.046875 258.464844 247.847656 259.46875 C 247.648438 260.472656 247.550781 261.484375 247.550781 262.507812 C 247.550781 263.53125 247.648438 264.542969 247.847656 265.546875 C 248.046875 266.550781 248.34375 267.527344 248.734375 268.472656 C 249.128906 269.417969 249.605469 270.3125 250.175781 271.164062 C 250.742188 272.015625 251.390625 272.800781 252.113281 273.527344 C 252.835938 274.25 253.625 274.894531 254.472656 275.464844 C 255.324219 276.03125 256.222656 276.511719 257.167969 276.902344 C 258.113281 277.296875 259.089844 277.589844 260.089844 277.789062 C 261.09375 277.988281 262.109375 278.089844 263.132812 278.089844 L 266.558594 278.089844 L 266.558594 342.128906 L 263.132812 342.128906 C 262.109375 342.128906 261.09375 342.230469 260.089844 342.429688 C 259.089844 342.628906 258.113281 342.925781 257.167969 343.316406 C 256.222656 343.707031 255.324219 344.1875 254.472656 344.757812 C 253.625 345.324219 252.835938 345.972656 252.113281 346.695312 C 251.390625 347.417969 250.742188 348.203125 250.175781 349.054688 C 249.605469 349.90625 249.128906 350.804688 248.734375 351.75 C 248.34375 352.695312 248.046875 353.667969 247.847656 354.671875 C 247.648438 355.675781 247.550781 356.6875 247.550781 357.710938 C 247.550781 358.734375 247.648438 359.75 247.847656 360.753906 C 248.046875 361.753906 248.34375 362.730469 248.734375 363.675781 C 249.128906 364.621094 249.605469 365.519531 250.175781 366.371094 C 250.742188 367.21875 251.390625 368.007812 252.113281 368.730469 C 252.835938 369.453125 253.625 370.101562 254.472656 370.667969 C 255.324219 371.238281 256.222656 371.714844 257.167969 372.109375 C 258.113281 372.5 259.089844 372.796875 260.089844 372.996094 C 261.09375 373.195312 262.109375 373.292969 263.132812 373.292969 Z M 301.152344 373.292969 " fill-opacity="1" fill-rule="nonzero"/><path fill="#000000" d="M 531.449219 388.875 L 484.703125 388.875 C 483.679688 388.875 482.667969 388.976562 481.664062 389.175781 C 480.660156 389.375 479.6875 389.671875 478.742188 390.0625 C 477.796875 390.453125 476.898438 390.933594 476.046875 391.5 C 475.195312 392.070312 474.410156 392.714844 473.683594 393.441406 C 472.960938 394.164062 472.316406 394.949219 471.746094 395.800781 C 471.179688 396.652344 470.699219 397.550781 470.308594 398.496094 C 469.917969 399.441406 469.621094 400.414062 469.421875 401.417969 C 469.222656 402.421875 469.121094 403.433594 469.121094 404.457031 C 469.121094 405.480469 469.222656 406.492188 469.421875 407.496094 C 469.621094 408.5 469.917969 409.476562 470.308594 410.421875 C 470.699219 411.367188 471.179688 412.261719 471.746094 413.113281 C 472.316406 413.964844 472.960938 414.753906 473.683594 415.476562 C 474.410156 416.199219 475.195312 416.84375 476.046875 417.414062 C 476.898438 417.980469 477.796875 418.460938 478.742188 418.851562 C 479.6875 419.246094 480.660156 419.539062 481.664062 419.738281 C 482.667969 419.941406 483.679688 420.039062 484.703125 420.039062 L 531.449219 420.039062 C 532.472656 420.039062 533.484375 419.941406 534.488281 419.738281 C 535.492188 419.539062 536.464844 419.246094 537.410156 418.851562 C 538.355469 418.460938 539.253906 417.980469 540.105469 417.414062 C 540.957031 416.84375 541.742188 416.199219 542.464844 415.476562 C 543.191406 414.753906 543.835938 413.964844 544.402344 413.113281 C 544.972656 412.261719 545.453125 411.367188 545.84375 410.421875 C 546.234375 409.476562 546.53125 408.5 546.730469 407.496094 C 546.929688 406.492188 547.03125 405.480469 547.03125 404.457031 C 547.03125 403.433594 546.929688 402.421875 546.730469 401.417969 C 546.53125 400.414062 546.234375 399.441406 545.84375 398.496094 C 545.453125 397.550781 544.972656 396.652344 544.402344 395.800781 C 543.835938 394.949219 543.191406 394.164062 542.464844 393.441406 C 541.742188 392.714844 540.957031 392.070312 540.105469 391.5 C 539.253906 390.933594 538.355469 390.453125 537.410156 390.0625 C 536.464844 389.671875 535.492188 389.375 534.488281 389.175781 C 533.484375 388.976562 532.472656 388.875 531.449219 388.875 Z M 531.449219 388.875 " fill-opacity="1" fill-rule="nonzero"/><path fill="#000000" d="M 531.449219 451.203125 L 406.792969 451.203125 C 405.773438 451.203125 404.757812 451.300781 403.753906 451.503906 C 402.75 451.703125 401.777344 451.996094 400.832031 452.390625 C 399.886719 452.78125 398.988281 453.261719 398.136719 453.828125 C 397.289062 454.398438 396.5 455.042969 395.777344 455.765625 C 395.054688 456.488281 394.40625 457.277344 393.839844 458.128906 C 393.269531 458.976562 392.789062 459.875 392.398438 460.820312 C 392.007812 461.765625 391.710938 462.742188 391.511719 463.746094 C 391.3125 464.746094 391.214844 465.761719 391.214844 466.785156 C 391.214844 467.808594 391.3125 468.820312 391.511719 469.824219 C 391.710938 470.828125 392.007812 471.800781 392.398438 472.746094 C 392.789062 473.691406 393.269531 474.589844 393.839844 475.441406 C 394.40625 476.292969 395.054688 477.078125 395.777344 477.800781 C 396.5 478.527344 397.289062 479.171875 398.136719 479.738281 C 398.988281 480.308594 399.886719 480.789062 400.832031 481.179688 C 401.777344 481.570312 402.75 481.867188 403.753906 482.066406 C 404.757812 482.265625 405.773438 482.367188 406.792969 482.367188 L 531.449219 482.367188 C 532.472656 482.367188 533.484375 482.265625 534.488281 482.066406 C 535.492188 481.867188 536.464844 481.570312 537.410156 481.179688 C 538.355469 480.789062 539.253906 480.308594 540.105469 479.738281 C 540.957031 479.171875 541.742188 478.527344 542.464844 477.800781 C 543.191406 477.078125 543.835938 476.292969 544.402344 475.441406 C 544.972656 474.589844 545.453125 473.691406 545.84375 472.746094 C 546.234375 471.800781 546.53125 470.828125 546.730469 469.824219 C 546.929688 468.820312 547.03125 467.808594 547.03125 466.785156 C 547.03125 465.761719 546.929688 464.746094 546.730469 463.746094 C 546.53125 462.742188 546.234375 461.765625 545.84375 460.820312 C 545.453125 459.875 544.972656 458.976562 544.402344 458.128906 C 543.835938 457.277344 543.191406 456.488281 542.464844 455.765625 C 541.742188 455.042969 540.957031 454.398438 540.105469 453.828125 C 539.253906 453.261719 538.355469 452.78125 537.410156 452.390625 C 536.464844 451.996094 535.492188 451.703125 534.488281 451.503906 C 533.484375 451.300781 532.472656 451.203125 531.449219 451.203125 Z M 531.449219 451.203125 " fill-opacity="1" fill-rule="nonzero"/><path fill="#000000" d="M 531.449219 513.53125 L 406.792969 513.53125 C 405.773438 513.53125 404.757812 513.628906 403.753906 513.828125 C 402.75 514.027344 401.777344 514.324219 400.832031 514.714844 C 399.886719 515.105469 398.988281 515.585938 398.136719 516.15625 C 397.289062 516.722656 396.5 517.371094 395.777344 518.09375 C 395.054688 518.816406 394.40625 519.605469 393.839844 520.453125 C 393.269531 521.304688 392.789062 522.203125 392.398438 523.148438 C 392.007812 524.09375 391.710938 525.066406 391.511719 526.070312 C 391.3125 527.074219 391.214844 528.089844 391.214844 529.109375 C 391.214844 530.132812 391.3125 531.148438 391.511719 532.152344 C 391.710938 533.15625 392.007812 534.128906 392.398438 535.074219 C 392.789062 536.019531 393.269531 536.917969 393.839844 537.769531 C 394.40625 538.617188 395.054688 539.40625 395.777344 540.128906 C 396.5 540.851562 397.289062 541.5 398.136719 542.066406 C 398.988281 542.636719 399.886719 543.117188 400.832031 543.507812 C 401.777344 543.898438 402.75 544.195312 403.753906 544.394531 C 404.757812 544.59375 405.773438 544.691406 406.792969 544.691406 L 531.449219 544.691406 C 532.472656 544.691406 533.484375 544.59375 534.488281 544.394531 C 535.492188 544.195312 536.464844 543.898438 537.410156 543.507812 C 538.355469 543.117188 539.253906 542.636719 540.105469 542.066406 C 540.957031 541.5 541.742188 540.851562 542.464844 540.128906 C 543.191406 539.40625 543.835938 538.617188 544.402344 537.769531 C 544.972656 536.917969 545.453125 536.019531 545.84375 535.074219 C 546.234375 534.128906 546.53125 533.15625 546.730469 532.152344 C 546.929688 531.148438 547.03125 530.132812 547.03125 529.109375 C 547.03125 528.089844 546.929688 527.074219 546.730469 526.070312 C 546.53125 525.066406 546.234375 524.09375 545.84375 523.148438 C 545.453125 522.203125 544.972656 521.304688 544.402344 520.453125 C 543.835938 519.605469 543.191406 518.816406 542.464844 518.09375 C 541.742188 517.371094 540.957031 516.722656 540.105469 516.15625 C 539.253906 515.585938 538.355469 515.105469 537.410156 514.714844 C 536.464844 514.324219 535.492188 514.027344 534.488281 513.828125 C 533.484375 513.628906 532.472656 513.53125 531.449219 513.53125 Z M 531.449219 513.53125 " fill-opacity="1" fill-rule="nonzero"/></svg>